<svg xmlns="http://www.w3.org/2000/svg" viewBox="0 0 2176 1488" width="272" height="186"><g transform="translate(0.000000,1488.000000) scale(0.100000,-0.100000)"
fill="#d82419" stroke="none">
<path d="M2090 14860 c0 -10 -20 -42 -45 -70 -25 -28 -45 -57 -45 -66 0 -8 -9
-40 -21 -72 -39 -109 -49 -204 -49 -451 0 -232 5 -293 45 -501 8 -41 19 -116
25 -165 12 -113 27 -190 40 -215 13 -24 13 -70 0 -70 -19 0 -100 91 -125 139
-13 27 -29 52 -35 56 -6 3 -26 30 -45 58 -48 71 -101 144 -155 212 -59 75
-123 160 -156 210 -30 44 -51 70 -187 230 -118 138 -144 162 -261 227 -38 22
-142 24 -189 4 -39 -17 -66 -45 -115 -122 -37 -59 -37 -59 -37 -224 0 -140 4
-177 22 -240 21 -70 53 -248 53 -290 0 -20 -25 -50 -41 -50 -6 0 -43 33 -83
73 -153 151 -207 177 -261 122 -23 -22 -25 -32 -25 -107 0 -89 21 -224 45
-298 8 -25 24 -87 35 -138 10 -51 30 -111 44 -135 13 -23 27 -62 31 -87 8 -50
38 -126 60 -150 34 -37 27 -100 -12 -100 -7 0 -48 35 -90 78 -156 158 -220
186 -258 111 -31 -60 -16 -261 34 -439 85 -303 118 -399 160 -465 17 -27 31
-57 31 -68 0 -10 20 -56 45 -101 48 -89 54 -116 29 -140 -23 -24 -40 -20 -83
20 -43 38 -79 65 -156 118 -28 19 -57 42 -65 52 -37 44 -144 73 -219 58 -31
-6 -31 -6 -31 -234 0 -182 3 -229 13 -233 23 -9 55 -90 71 -180 8 -47 26 -107
39 -134 14 -27 28 -69 32 -94 4 -25 17 -63 30 -85 51 -84 57 -98 62 -150 7
-64 -8 -88 -68 -106 -79 -23 -99 -79 -99 -277 0 -226 56 -452 129 -520 40 -37
39 -62 -3 -108 -18 -21 -41 -54 -51 -73 -10 -19 -26 -45 -36 -58 -28 -36 -79
-180 -79 -223 0 -21 7 -56 14 -76 8 -21 20 -58 26 -83 19 -71 88 -164 229
-308 142 -145 148 -156 109 -215 -13 -19 -31 -48 -41 -63 -9 -16 -27 -45 -40
-64 -20 -31 -22 -48 -22 -155 0 -139 2 -145 93 -243 62 -67 198 -224 260 -301
77 -95 81 -140 22 -246 -53 -97 -53 -133 1 -241 34 -68 53 -92 120 -150 93
-81 105 -108 88 -199 -13 -71 -8 -93 37 -158 61 -88 177 -189 283 -247 62 -34
72 -57 64 -156 -3 -45 -3 -94 1 -108 11 -46 162 -183 233 -212 21 -9 59 -29
85 -46 26 -16 71 -36 100 -43 102 -27 111 -72 39 -194 -55 -93 -66 -136 -56
-214 13 -92 77 -177 179 -236 132 -77 147 -97 127 -174 -7 -29 -7 -70 -2 -121
9 -75 11 -80 56 -126 26 -27 60 -51 74 -55 14 -4 46 -19 71 -35 25 -15 72 -35
104 -45 183 -52 198 -67 189 -186 -4 -57 -2 -82 10 -105 18 -35 101 -114 119
-114 8 0 30 -11 51 -26 22 -14 68 -31 110 -39 86 -16 107 -36 107 -102 0 -60
29 -106 84 -132 23 -12 46 -21 49 -21 4 0 29 -15 56 -33 33 -23 65 -36 100
-40 126 -15 170 -60 132 -135 -12 -23 -21 -50 -21 -62 0 -27 72 -104 113 -121
17 -7 44 -21 58 -31 32 -22 152 -48 220 -48 61 0 234 -27 272 -42 56 -22 67
-75 37 -180 -31 -105 65 -303 163 -338 17 -5 51 -23 76 -39 26 -17 74 -35 111
-42 36 -7 88 -22 117 -35 29 -12 87 -28 130 -34 132 -19 145 -33 98 -101 -25
-35 -26 -42 -15 -69 16 -38 135 -145 185 -166 21 -8 56 -27 78 -42 41 -27 41
-27 208 -24 168 3 168 3 157 -28 -13 -38 -40 -56 -98 -65 -25 -4 -67 -18 -93
-32 -27 -13 -90 -33 -140 -44 -51 -11 -113 -31 -138 -44 -26 -13 -77 -29 -114
-36 -36 -6 -90 -24 -118 -39 -29 -15 -77 -33 -107 -40 -30 -7 -75 -23 -100
-36 -25 -13 -80 -33 -123 -44 -42 -10 -96 -30 -120 -44 -23 -14 -70 -31 -105
-39 -34 -8 -79 -26 -100 -40 -20 -14 -64 -30 -96 -36 -33 -6 -79 -24 -105 -40
-25 -16 -68 -35 -96 -42 -27 -6 -69 -22 -92 -35 -23 -13 -70 -31 -105 -40 -35
-8 -98 -29 -142 -45 -43 -17 -103 -35 -134 -40 -31 -6 -78 -22 -104 -35 -28
-14 -87 -30 -146 -39 -55 -8 -119 -23 -143 -33 -44 -19 -188 -45 -311 -57 -37
-4 -91 -13 -120 -21 -29 -7 -92 -14 -139 -14 -54 0 -100 -6 -122 -15 -31 -13
-112 -15 -509 -15 -260 -1 -531 -6 -603 -12 -71 -6 -162 -10 -202 -9 -39 1
-98 -5 -131 -13 -33 -9 -91 -16 -130 -16 -38 0 -85 -6 -103 -14 -19 -7 -81
-16 -137 -20 -118 -7 -128 -11 -186 -72 -24 -24 -50 -44 -59 -44 -14 0 -17
-11 -17 -65 0 -61 2 -65 29 -79 27 -14 40 -37 57 -96 11 -41 70 -115 156 -194
89 -83 226 -148 352 -167 120 -18 181 -31 256 -54 41 -13 116 -27 165 -30 176
-14 290 -56 340 -127 24 -36 127 -108 160 -112 16 -3 59 -9 95 -15 36 -5 92
-7 125 -4 43 4 71 1 99 -11 21 -9 61 -16 88 -16 59 0 133 -35 165 -78 34 -47
151 -82 273 -82 52 0 113 -5 135 -11 22 -6 122 -14 222 -17 182 -7 182 -7 220
-44 21 -20 55 -43 76 -52 21 -8 45 -28 55 -46 17 -30 17 -30 241 -30 225 0
225 0 250 31 22 26 40 34 114 50 49 10 101 28 117 39 53 37 133 45 211 20 44
-15 81 -20 106 -17 81 12 200 51 239 79 23 16 61 34 85 39 24 6 65 24 91 40
26 17 70 37 98 44 28 7 66 24 83 38 18 13 42 27 55 31 12 4 42 23 66 41 25 19
59 41 78 51 18 9 42 25 53 35 11 10 34 28 52 41 110 79 242 180 263 201 30 28
152 97 173 97 39 0 58 -34 77 -136 11 -63 27 -116 42 -140 13 -22 30 -51 38
-65 30 -52 105 -109 165 -124 31 -9 76 -26 98 -39 113 -66 458 -64 634 3 43
16 96 33 118 37 60 10 80 23 245 162 83 70 86 71 284 83 94 6 191 17 215 25
64 20 739 20 838 0 37 -8 129 -17 203 -21 172 -8 278 -21 360 -45 72 -21 166
-34 370 -51 74 -6 143 -15 152 -20 9 -5 41 -9 71 -9 30 0 71 -7 90 -15 27 -11
76 -15 193 -15 262 0 645 -20 683 -36 18 -8 57 -14 85 -14 28 0 83 -7 121 -15
54 -11 150 -15 429 -15 366 0 402 3 626 45 41 8 161 19 265 25 235 12 253 15
395 50 63 15 131 31 150 34 19 3 63 19 98 36 34 16 81 34 105 41 23 6 63 24
89 40 26 17 64 35 85 41 21 6 54 23 73 38 19 15 49 35 67 44 17 9 38 25 46 36
7 11 32 33 54 49 44 32 273 260 273 272 0 5 13 23 29 42 16 18 41 57 55 87 62
130 172 248 401 430 31 25 93 77 138 115 45 39 102 83 127 99 57 37 264 246
286 289 9 17 28 45 41 61 13 15 31 45 39 65 8 20 25 47 38 61 13 14 37 52 53
85 16 33 39 78 50 100 11 22 29 57 39 79 30 60 109 104 224 122 59 10 109 24
135 40 105 61 143 -1 79 -129 -48 -93 -13 -142 100 -142 63 0 77 4 121 32 28
17 66 38 85 46 94 40 263 252 285 357 4 19 18 58 30 87 39 87 59 285 36 346
-32 83 -176 229 -247 250 -27 8 -68 24 -90 36 -23 12 -90 30 -150 40 -60 10
-129 28 -153 41 -24 12 -67 29 -95 37 -75 22 -136 75 -136 118 0 31 6 38 63
75 34 22 80 44 102 50 22 5 87 25 145 44 58 19 123 37 145 41 22 4 59 17 82
31 23 13 70 31 105 40 35 9 81 29 103 45 22 16 58 34 80 40 22 6 58 24 80 40
22 16 58 34 80 40 22 6 58 24 80 40 23 16 64 33 95 39 32 6 73 23 98 40 23 17
64 35 90 41 26 5 67 23 92 39 25 15 62 35 84 44 21 9 54 29 72 46 19 16 39 30
44 30 5 0 25 13 43 30 19 16 56 39 82 50 26 11 63 34 82 50 18 17 40 30 47 30
8 0 38 18 67 40 30 22 59 40 65 40 7 0 31 16 54 35 23 19 59 39 80 45 21 6 57
26 80 45 23 19 48 35 55 35 7 0 37 18 66 40 30 22 59 40 66 40 7 0 28 14 48
31 19 17 58 40 87 51 28 10 64 28 79 39 15 10 48 28 74 39 26 11 61 31 77 45
16 13 46 29 67 35 21 5 55 23 75 39 21 17 54 35 74 42 20 6 57 24 82 39 25 16
65 34 90 40 25 7 68 25 95 40 28 16 73 34 100 40 28 6 72 22 99 37 28 14 91
33 140 43 50 10 127 32 171 48 44 16 102 33 130 37 27 4 79 18 115 32 36 13
103 31 150 39 48 8 96 22 110 33 14 10 49 30 77 44 27 14 63 37 79 50 16 13
48 34 72 46 23 12 42 25 42 30 0 5 18 20 41 35 22 15 106 91 187 169 81 78
174 165 207 192 89 73 322 303 365 360 20 28 101 118 178 200 78 83 156 166
174 185 48 50 197 222 241 277 40 50 66 87 116 163 17 25 38 56 48 70 36 50
114 216 125 265 6 28 23 73 39 100 15 28 32 77 38 109 6 33 24 80 40 105 15
25 34 68 40 95 7 27 23 70 36 97 14 26 34 82 45 123 12 41 32 95 45 119 14 24
29 74 34 113 6 38 21 103 35 144 26 82 41 153 51 245 4 33 18 89 32 125 13 36
35 121 49 188 13 68 31 136 39 152 8 15 24 108 35 206 12 99 29 202 38 229 14
42 17 118 23 485 3 239 12 590 19 779 13 346 6 552 -19 599 -29 54 -109 52
-190 -6 -63 -44 -252 -227 -270 -261 -7 -13 -28 -44 -47 -68 -19 -25 -34 -51
-34 -58 0 -7 -16 -32 -35 -55 -19 -22 -39 -57 -44 -76 -5 -20 -23 -56 -40 -82
-16 -26 -34 -66 -41 -90 -15 -59 -43 -71 -106 -47 -55 21 -115 17 -196 -14
-60 -23 -222 -172 -254 -233 -8 -16 -30 -49 -49 -73 -18 -24 -36 -62 -40 -84
-4 -22 -20 -60 -36 -83 -17 -25 -31 -63 -35 -92 -11 -79 -30 -90 -128 -80
-179 18 -228 7 -311 -74 -82 -79 -112 -124 -125 -187 -15 -72 -29 -81 -172
-118 -121 -32 -124 -33 -173 -84 -73 -76 -120 -134 -138 -169 -34 -66 -76 -90
-168 -98 -56 -5 -94 -13 -114 -26 -16 -11 -52 -30 -80 -43 -101 -48 -254 -208
-270 -283 -22 -99 -47 -124 -123 -124 -26 0 -51 -8 -73 -25 -19 -13 -50 -35
-69 -49 -19 -13 -71 -64 -115 -112 -162 -178 -410 -424 -444 -440 -24 -11 -77
-19 -165 -24 -136 -8 -148 -11 -302 -86 -17 -9 -96 -77 -175 -151 -79 -75
-161 -147 -181 -161 -21 -13 -38 -28 -38 -33 0 -17 -47 -33 -113 -40 -48 -4
-77 -13 -95 -28 -15 -11 -47 -32 -72 -45 -25 -13 -54 -34 -65 -46 -11 -12 -37
-31 -58 -41 -20 -11 -50 -37 -65 -57 -65 -90 -145 -171 -176 -178 -17 -4 -69
-19 -116 -34 -47 -16 -123 -36 -170 -45 -50 -10 -99 -26 -120 -41 -20 -13 -57
-30 -82 -38 -26 -7 -66 -30 -89 -50 -24 -20 -49 -36 -56 -36 -7 0 -30 -15 -50
-33 -41 -35 -107 -82 -154 -108 -17 -10 -79 -22 -147 -29 -88 -9 -127 -18
-157 -36 -22 -12 -62 -28 -90 -34 -27 -6 -70 -24 -95 -40 -25 -15 -56 -31 -70
-35 -14 -4 -44 -25 -66 -45 -30 -28 -56 -41 -96 -49 -30 -7 -72 -21 -93 -32
-21 -11 -67 -30 -103 -41 -36 -11 -89 -33 -116 -48 -28 -15 -64 -31 -81 -35
-16 -3 -45 -18 -63 -32 -19 -14 -57 -34 -84 -44 -28 -10 -61 -27 -72 -38 -12
-11 -46 -31 -76 -45 -66 -31 -174 -93 -216 -123 -17 -12 -53 -27 -80 -33 -27
-6 -69 -24 -94 -40 -25 -16 -67 -34 -94 -40 -27 -6 -68 -24 -90 -41 -22 -16
-59 -34 -81 -40 -22 -6 -60 -23 -85 -39 -25 -16 -65 -34 -89 -40 -25 -6 -58
-22 -75 -35 -17 -13 -56 -34 -87 -48 -31 -14 -60 -30 -63 -36 -4 -6 -34 -25
-66 -41 -32 -16 -62 -35 -65 -41 -4 -6 -36 -24 -70 -39 -34 -15 -66 -34 -70
-40 -4 -7 -31 -23 -59 -35 -29 -13 -65 -34 -82 -48 -16 -13 -45 -29 -65 -36
-20 -6 -45 -21 -55 -33 -11 -11 -44 -32 -74 -45 -30 -14 -66 -35 -80 -48 -14
-13 -41 -31 -61 -39 -20 -8 -50 -26 -65 -39 -16 -13 -45 -32 -64 -42 -19 -10
-50 -31 -68 -46 -18 -16 -41 -29 -52 -29 -10 0 -47 -15 -82 -33 -35 -19 -80
-40 -101 -46 -21 -7 -50 -23 -66 -37 -16 -13 -48 -33 -72 -44 -46 -22 -117
-68 -184 -120 -22 -17 -60 -45 -85 -61 -90 -59 -174 -119 -228 -165 -20 -17
-53 -42 -73 -55 -20 -13 -62 -42 -95 -63 -32 -22 -70 -50 -84 -62 -65 -60
-195 -171 -219 -189 -15 -11 -61 -50 -102 -86 -41 -36 -91 -76 -112 -88 -20
-12 -37 -27 -37 -32 0 -13 -142 -77 -209 -95 -57 -15 -147 -4 -276 32 -27 7
-68 18 -90 24 -84 20 -259 186 -300 283 -7 18 -29 56 -48 84 -19 28 -38 68
-42 89 -3 21 -18 60 -31 87 -14 27 -34 88 -44 136 -10 49 -30 115 -43 147 -14
33 -30 79 -37 104 -6 25 -23 64 -36 87 -13 23 -31 70 -40 105 -9 35 -29 81
-45 103 -16 22 -36 65 -45 95 -9 30 -26 69 -38 85 -13 17 -35 55 -49 85 -15
30 -47 89 -72 130 -25 41 -58 101 -75 132 -16 31 -34 59 -40 63 -6 3 -26 39
-46 78 -81 162 -93 184 -109 197 -9 8 -28 37 -42 64 -14 28 -37 65 -50 81 -13
17 -35 46 -49 65 -69 101 -97 140 -136 187 -24 29 -70 85 -103 125 -63 77
-143 156 -228 226 -29 23 -93 77 -144 120 -50 42 -117 97 -148 122 -31 25 -76
63 -100 85 -58 54 -96 87 -121 105 -31 21 -202 219 -244 281 -19 28 -49 70
-65 93 -35 47 -83 130 -131 228 -18 36 -38 69 -44 73 -7 4 -25 36 -40 70 -15
34 -33 66 -39 70 -6 3 -25 33 -41 65 -16 32 -34 62 -40 65 -6 4 -24 34 -40 68
-17 33 -36 67 -44 76 -8 9 -28 45 -45 81 -17 36 -50 97 -73 135 -62 106 -154
286 -168 331 -7 21 -21 54 -32 72 -11 18 -26 60 -34 95 -8 34 -26 81 -39 104
-14 23 -32 70 -41 105 -9 35 -27 80 -40 101 -16 25 -32 74 -44 138 -11 56 -30
117 -43 141 -14 24 -30 68 -37 98 -7 30 -24 76 -37 102 -17 31 -31 89 -43 166
-10 65 -26 136 -35 158 -19 44 -29 115 -50 359 -14 171 -34 299 -52 345 -6 14
-14 53 -18 86 -14 128 -85 176 -219 150 -50 -10 -148 -101 -183 -171 -14 -27
-35 -63 -46 -78 -11 -16 -28 -55 -38 -86 -9 -32 -29 -75 -43 -95 -14 -21 -28
-58 -31 -84 -4 -26 -16 -87 -26 -137 -10 -49 -19 -115 -19 -147 0 -50 -4 -63
-25 -84 -40 -40 -65 -17 -87 77 -10 41 -31 117 -47 169 -17 52 -33 118 -37
145 -9 68 -31 167 -53 234 -10 31 -29 121 -41 201 -12 80 -31 170 -41 201 -11
31 -24 101 -29 155 -5 55 -18 133 -30 174 -44 156 -48 177 -55 265 -3 50 -17
123 -30 165 -14 41 -34 135 -45 208 -11 73 -27 149 -35 170 -19 49 -45 160
-45 196 0 66 -87 186 -133 186 -48 0 -153 -120 -189 -214 -11 -27 -28 -65 -38
-86 -20 -39 -53 -151 -75 -253 -15 -72 -51 -115 -83 -98 -25 13 -30 27 -47
124 -8 43 -24 94 -36 113 -12 19 -29 65 -39 102 -9 37 -28 84 -43 105 -16 23
-30 64 -37 108 -7 39 -23 95 -36 124 -14 29 -31 88 -40 132 -8 43 -28 112 -44
155 -16 42 -35 109 -41 149 -6 40 -24 101 -39 135 -16 34 -34 90 -40 125 -7
35 -20 84 -31 109 -10 25 -26 81 -34 125 -26 137 -95 192 -209 166 -66 -15
-159 -92 -203 -170 -15 -25 -37 -58 -49 -73 -12 -15 -30 -51 -39 -80 -10 -29
-26 -67 -36 -84 -10 -17 -32 -82 -48 -145 -16 -63 -38 -134 -47 -159 -15 -38
-18 -88 -20 -335 -2 -159 -6 -300 -8 -311 -14 -56 -70 -29 -81 39 -4 23 -20
71 -35 107 -16 36 -34 85 -40 110 -7 25 -23 61 -36 82 -14 20 -32 62 -40 95
-9 32 -28 78 -44 103 -16 25 -33 63 -39 85 -6 22 -27 65 -46 95 -19 30 -35 61
-35 70 0 9 -18 52 -40 95 -22 43 -40 83 -40 89 0 6 -18 40 -40 76 -22 36 -40
72 -40 80 0 8 -18 44 -40 80 -22 36 -40 71 -40 79 0 32 -89 169 -147 227 -35
34 -63 69 -63 78 0 14 -14 16 -90 16 -83 0 -90 -2 -90 -20z m3265 -12271 c-4
-5 -13 -9 -22 -9 -13 0 -13 3 -3 15 13 15 35 11 25 -6z"/>
</g><g transform="translate(0.000000,1488.000000) scale(0.100000,-0.100000)"
fill="#e7e458" stroke="none">
<path d="M14432 3688 c-57 -32 -84 -70 -64 -90 31 -31 162 51 162 101 0 29
-33 26 -98 -11z M14628 3608 c-62 -47 -133 -124 -121 -131 5 -3 26 -8 48 -12
67 -11 72 -14 119 -72 53 -63 53 -66 26 -93 -18 -18 -28 -20 -81 -14 -33 4
-92 2 -132 -4 -40 -6 -93 -14 -119 -17 -34 -4 -59 -16 -89 -41 -29 -24 -51
-34 -75 -34 -36 0 -74 28 -74 56 0 19 95 121 121 129 48 15 47 75 -1 100 -42
22 -44 21 -109 -44 -78 -78 -93 -108 -85 -169 7 -60 -33 -123 -99 -151 -23
-10 -49 -26 -57 -35 -7 -10 -36 -29 -63 -43 -69 -34 -167 -133 -167 -167 0
-34 33 -66 68 -66 48 0 129 27 165 54 20 15 53 32 74 37 21 6 54 26 73 44 21
20 52 38 77 43 24 6 59 24 78 41 25 22 49 32 86 37 36 5 62 16 85 36 35 31 81
48 129 48 17 0 49 9 70 20 66 34 134 51 241 59 70 6 113 15 143 30 74 38 129
39 175 2 27 -21 50 -31 74 -31 22 0 53 -11 83 -31 59 -37 73 -31 66 27 -6 53
-29 91 -70 112 -17 10 -49 33 -71 53 -23 20 -59 46 -81 58 -22 12 -55 33 -74
46 -19 14 -43 25 -53 25 -22 0 -61 19 -114 55 -20 14 -47 25 -59 25 -13 0 -49
14 -80 30 -70 37 -60 38 -127 -12z M14840 3115 c-36 -7 -83 -13 -106 -14 -26
-1 -65 -14 -105 -35 -35 -19 -91 -39 -123 -45 -33 -6 -78 -24 -102 -40 -24
-15 -61 -31 -82 -35 -21 -3 -56 -18 -78 -32 -21 -15 -59 -32 -84 -39 -30 -7
-46 -17 -48 -29 -10 -47 78 -48 190 -2 46 19 110 39 143 46 33 7 82 23 108 37
27 13 81 32 120 42 40 10 92 28 116 40 24 12 71 28 105 36 99 21 121 38 90 70
-18 17 -52 17 -144 0z M6016 1163 c-9 -24 9 -39 29 -23 8 7 15 19 15 26 0 20
-37 17 -44 -3z M6177 1103 c-12 -12 -7 -43 7 -43 18 0 39 27 31 40 -7 11 -28
13 -38 3z M5783 1082 c-35 -22 -56 -168 -32 -215 40 -78 177 -169 324 -214
107 -32 83 -83 -39 -83 -59 0 -76 4 -107 26 -37 26 -79 29 -86 7 -4 -12 4 -21
57 -58 19 -13 46 -32 59 -42 49 -36 250 -25 301 17 14 11 48 31 75 44 28 13
82 55 122 94 39 39 80 73 91 76 30 10 158 160 172 201 19 59 -26 85 -124 71
-43 -7 -147 -67 -176 -101 -8 -10 -42 -31 -75 -46 -33 -16 -76 -38 -95 -49
-29 -16 -53 -20 -136 -20 -101 0 -101 0 -178 50 -87 57 -106 87 -106 169 0 32
-6 55 -16 65 -18 18 -16 18 -31 8z M6286 1013 c-11 -11 -6 -23 9 -23 8 0 15 4
15 9 0 13 -16 22 -24 14z"/>
</g><g transform="translate(0.000000,1488.000000) scale(0.100000,-0.100000)"
fill="#fdfdfc" stroke="none">
<path d="M13945 3607 c-51 -43 -47 -157 4 -157 36 0 111 83 111 122 0 55 -68
76 -115 35z M13684 3583 c-17 -17 -16 -131 1 -176 13 -32 61 -50 100 -37 46
15 49 32 14 76 -22 28 -29 47 -29 80 0 66 -46 97 -86 57z"/>
</g><g transform="translate(0.000000,1488.000000) scale(0.100000,-0.100000)"
fill="#111111" stroke="none">
<path d="M2090 14860 c0 -10 -20 -42 -45 -70 -25 -28 -45 -57 -45 -66 0 -8 -9
-40 -21 -72 -39 -109 -49 -204 -49 -451 0 -232 5 -293 45 -501 8 -41 19 -116
25 -165 12 -113 27 -190 40 -215 13 -24 13 -70 0 -70 -19 0 -100 91 -125 139
-13 27 -29 52 -35 56 -6 3 -26 30 -45 58 -48 71 -101 144 -155 212 -59 75
-123 160 -156 210 -30 44 -51 70 -187 230 -118 138 -144 162 -261 227 -38 22
-142 24 -189 4 -39 -17 -66 -45 -115 -122 -37 -59 -37 -59 -37 -224 0 -140 4
-177 22 -240 21 -70 53 -248 53 -290 0 -20 -25 -50 -41 -50 -6 0 -43 33 -83
73 -153 151 -207 177 -261 122 -23 -22 -25 -32 -25 -107 0 -89 21 -224 45
-298 8 -25 24 -87 35 -138 10 -51 30 -111 44 -135 13 -23 27 -62 31 -87 8 -50
38 -126 60 -150 34 -37 27 -100 -12 -100 -7 0 -48 35 -90 78 -156 158 -220
186 -258 111 -31 -60 -16 -261 34 -439 85 -303 118 -399 160 -465 17 -27 31
-57 31 -68 0 -10 20 -56 45 -101 48 -89 54 -116 29 -140 -23 -24 -40 -20 -83
20 -43 38 -79 65 -156 118 -28 19 -57 42 -65 52 -37 44 -144 73 -219 58 -31
-6 -31 -6 -31 -234 0 -182 3 -229 13 -233 23 -9 55 -90 71 -180 8 -47 26 -107
39 -134 14 -27 28 -69 32 -94 4 -25 17 -63 30 -85 51 -84 57 -98 62 -150 7
-64 -8 -88 -68 -106 -79 -23 -99 -79 -99 -277 0 -226 56 -452 129 -520 40 -37
39 -62 -3 -108 -18 -21 -41 -54 -51 -73 -10 -19 -26 -45 -36 -58 -28 -36 -79
-180 -79 -223 0 -21 7 -56 14 -76 8 -21 20 -58 26 -83 19 -71 88 -164 229
-308 142 -145 148 -156 109 -215 -13 -19 -31 -48 -41 -63 -9 -16 -27 -45 -40
-64 -20 -31 -22 -48 -22 -155 0 -139 2 -145 93 -243 62 -67 198 -224 260 -301
77 -95 81 -140 22 -246 -53 -97 -53 -133 1 -241 34 -68 53 -92 120 -150 93
-81 105 -108 88 -199 -13 -71 -8 -93 37 -158 61 -88 177 -189 283 -247 62 -34
72 -57 64 -156 -3 -45 -3 -94 1 -108 11 -46 162 -183 233 -212 21 -9 59 -29
85 -46 26 -16 71 -36 100 -43 102 -27 111 -72 39 -194 -55 -93 -66 -136 -56
-214 13 -92 77 -177 179 -236 132 -77 147 -97 127 -174 -7 -29 -7 -70 -2 -121
9 -75 11 -80 56 -126 26 -27 60 -51 74 -55 14 -4 46 -19 71 -35 25 -15 72 -35
104 -45 183 -52 198 -67 189 -186 -4 -57 -2 -82 10 -105 18 -35 101 -114 119
-114 8 0 30 -11 51 -26 22 -14 68 -31 110 -39 86 -16 107 -36 107 -102 0 -60
29 -106 84 -132 23 -12 46 -21 49 -21 4 0 29 -15 56 -33 33 -23 65 -36 100
-40 126 -15 170 -60 132 -135 -12 -23 -21 -50 -21 -62 0 -27 72 -104 113 -121
17 -7 44 -21 58 -31 32 -22 152 -48 220 -48 61 0 234 -27 272 -42 56 -22 67
-75 37 -180 -31 -105 65 -303 163 -338 17 -5 51 -23 76 -39 26 -17 74 -35 111
-42 36 -7 88 -22 117 -35 29 -12 87 -28 130 -34 132 -19 145 -33 98 -101 -25
-35 -26 -42 -15 -69 16 -38 135 -145 185 -166 21 -8 56 -27 78 -42 41 -27 41
-27 208 -24 168 3 168 3 157 -28 -13 -38 -40 -56 -98 -65 -25 -4 -67 -18 -93
-32 -27 -13 -90 -33 -140 -44 -51 -11 -113 -31 -138 -44 -26 -13 -77 -29 -114
-36 -36 -6 -90 -24 -118 -39 -29 -15 -77 -33 -107 -40 -30 -7 -75 -23 -100
-36 -25 -13 -80 -33 -123 -44 -42 -10 -96 -30 -120 -44 -23 -14 -70 -31 -105
-39 -34 -8 -79 -26 -100 -40 -20 -14 -64 -30 -96 -36 -33 -6 -79 -24 -105 -40
-25 -16 -68 -35 -96 -42 -27 -6 -69 -22 -92 -35 -23 -13 -70 -31 -105 -40 -35
-8 -98 -29 -142 -45 -43 -17 -103 -35 -134 -40 -31 -6 -78 -22 -104 -35 -28
-14 -87 -30 -146 -39 -55 -8 -119 -23 -143 -33 -44 -19 -188 -45 -311 -57 -37
-4 -91 -13 -120 -21 -29 -7 -92 -14 -139 -14 -54 0 -100 -6 -122 -15 -31 -13
-112 -15 -509 -15 -260 -1 -531 -6 -603 -12 -71 -6 -162 -10 -202 -9 -39 1
-98 -5 -131 -13 -33 -9 -91 -16 -130 -16 -38 0 -85 -6 -103 -14 -19 -7 -81
-16 -137 -20 -118 -7 -128 -11 -186 -72 -24 -24 -50 -44 -59 -44 -14 0 -17
-11 -17 -65 0 -61 2 -65 29 -79 27 -14 40 -37 57 -96 11 -41 70 -115 156 -194
89 -83 226 -148 352 -167 120 -18 181 -31 256 -54 41 -13 116 -27 165 -30 176
-14 290 -56 340 -127 24 -36 127 -108 160 -112 16 -3 59 -9 95 -15 36 -5 92
-7 125 -4 43 4 71 1 99 -11 21 -9 61 -16 88 -16 59 0 133 -35 165 -78 34 -47
151 -82 273 -82 52 0 113 -5 135 -11 22 -6 122 -14 222 -17 182 -7 182 -7 220
-44 21 -20 55 -43 76 -52 21 -8 45 -28 55 -46 17 -30 17 -30 241 -30 225 0
225 0 250 31 22 26 40 34 114 50 49 10 101 28 117 39 53 37 133 45 211 20 44
-15 81 -20 106 -17 81 12 200 51 239 79 23 16 61 34 85 39 24 6 65 24 91 40
26 17 70 37 98 44 28 7 66 24 83 38 18 13 42 27 55 31 12 4 42 23 66 41 25 19
59 41 78 51 18 9 42 25 53 35 11 10 34 28 52 41 110 79 242 180 263 201 30 28
152 97 173 97 39 0 58 -34 77 -136 11 -63 27 -116 42 -140 13 -22 30 -51 38
-65 30 -52 105 -109 165 -124 31 -9 76 -26 98 -39 113 -66 458 -64 634 3 43
16 96 33 118 37 60 10 80 23 245 162 83 70 86 71 284 83 94 6 191 17 215 25
64 20 739 20 838 0 37 -8 129 -17 203 -21 172 -8 278 -21 360 -45 72 -21 166
-34 370 -51 74 -6 143 -15 152 -20 9 -5 41 -9 71 -9 30 0 71 -7 90 -15 27 -11
76 -15 193 -15 262 0 645 -20 683 -36 18 -8 57 -14 85 -14 28 0 83 -7 121 -15
54 -11 150 -15 429 -15 366 0 402 3 626 45 41 8 161 19 265 25 235 12 253 15
395 50 63 15 131 31 150 34 19 3 63 19 98 36 34 16 81 34 105 41 23 6 63 24
89 40 26 17 64 35 85 41 21 6 54 23 73 38 19 15 49 35 67 44 17 9 38 25 46 36
7 11 32 33 54 49 44 32 273 260 273 272 0 5 13 23 29 42 16 18 41 57 55 87 62
130 172 248 401 430 31 25 93 77 138 115 45 39 102 83 127 99 57 37 264 246
286 289 9 17 28 45 41 61 13 15 31 45 39 65 8 20 25 47 38 61 13 14 37 52 53
85 16 33 39 78 50 100 11 22 29 57 39 79 30 60 109 104 224 122 59 10 109 24
135 40 105 61 143 -1 79 -129 -48 -93 -13 -142 100 -142 63 0 77 4 121 32 28
17 66 38 85 46 94 40 263 252 285 357 4 19 18 58 30 87 39 87 59 285 36 346
-32 83 -176 229 -247 250 -27 8 -68 24 -90 36 -23 12 -90 30 -150 40 -60 10
-129 28 -153 41 -24 12 -67 29 -95 37 -75 22 -136 75 -136 118 0 31 6 38 63
75 34 22 80 44 102 50 22 5 87 25 145 44 58 19 123 37 145 41 22 4 59 17 82
31 23 13 70 31 105 40 35 9 81 29 103 45 22 16 58 34 80 40 22 6 58 24 80 40
22 16 58 34 80 40 22 6 58 24 80 40 23 16 64 33 95 39 32 6 73 23 98 40 23 17
64 35 90 41 26 5 67 23 92 39 25 15 62 35 84 44 21 9 54 29 72 46 19 16 39 30
44 30 5 0 25 13 43 30 19 16 56 39 82 50 26 11 63 34 82 50 18 17 40 30 47 30
8 0 38 18 67 40 30 22 59 40 65 40 7 0 31 16 54 35 23 19 59 39 80 45 21 6 57
26 80 45 23 19 48 35 55 35 7 0 37 18 66 40 30 22 59 40 66 40 7 0 28 14 48
31 19 17 58 40 87 51 28 10 64 28 79 39 15 10 48 28 74 39 26 11 61 31 77 45
16 13 46 29 67 35 21 5 55 23 75 39 21 17 54 35 74 42 20 6 57 24 82 39 25 16
65 34 90 40 25 7 68 25 95 40 28 16 73 34 100 40 28 6 72 22 99 37 28 14 91
33 140 43 50 10 127 32 171 48 44 16 102 33 130 37 27 4 79 18 115 32 36 13
103 31 150 39 48 8 96 22 110 33 14 10 49 30 77 44 27 14 63 37 79 50 16 13
48 34 72 46 23 12 42 25 42 30 0 5 18 20 41 35 22 15 106 91 187 169 81 78
174 165 207 192 89 73 322 303 365 360 20 28 101 118 178 200 78 83 156 166
174 185 48 50 197 222 241 277 40 50 66 87 116 163 17 25 38 56 48 70 36 50
114 216 125 265 6 28 23 73 39 100 15 28 32 77 38 109 6 33 24 80 40 105 15
25 34 68 40 95 7 27 23 70 36 97 14 26 34 82 45 123 12 41 32 95 45 119 14 24
29 74 34 113 6 38 21 103 35 144 26 82 41 153 51 245 4 33 18 89 32 125 13 36
35 121 49 188 13 68 31 136 39 152 8 15 24 108 35 206 12 99 29 202 38 229 14
42 17 118 23 485 3 239 12 590 19 779 13 346 6 552 -19 599 -29 54 -109 52
-190 -6 -63 -44 -252 -227 -270 -261 -7 -13 -28 -44 -47 -68 -19 -25 -34 -51
-34 -58 0 -7 -16 -32 -35 -55 -19 -22 -39 -57 -44 -76 -5 -20 -23 -56 -40 -82
-16 -26 -34 -66 -41 -90 -15 -59 -43 -71 -106 -47 -55 21 -115 17 -196 -14
-60 -23 -222 -172 -254 -233 -8 -16 -30 -49 -49 -73 -18 -24 -36 -62 -40 -84
-4 -22 -20 -60 -36 -83 -17 -25 -31 -63 -35 -92 -11 -79 -30 -90 -128 -80
-179 18 -228 7 -311 -74 -82 -79 -112 -124 -125 -187 -15 -72 -29 -81 -172
-118 -121 -32 -124 -33 -173 -84 -73 -76 -120 -134 -138 -169 -34 -66 -76 -90
-168 -98 -56 -5 -94 -13 -114 -26 -16 -11 -52 -30 -80 -43 -101 -48 -254 -208
-270 -283 -22 -99 -47 -124 -123 -124 -26 0 -51 -8 -73 -25 -19 -13 -50 -35
-69 -49 -19 -13 -71 -64 -115 -112 -162 -178 -410 -424 -444 -440 -24 -11 -77
-19 -165 -24 -136 -8 -148 -11 -302 -86 -17 -9 -96 -77 -175 -151 -79 -75
-161 -147 -181 -161 -21 -13 -38 -28 -38 -33 0 -17 -47 -33 -113 -40 -48 -4
-77 -13 -95 -28 -15 -11 -47 -32 -72 -45 -25 -13 -54 -34 -65 -46 -11 -12 -37
-31 -58 -41 -20 -11 -50 -37 -65 -57 -65 -90 -145 -171 -176 -178 -17 -4 -69
-19 -116 -34 -47 -16 -123 -36 -170 -45 -50 -10 -99 -26 -120 -41 -20 -13 -57
-30 -82 -38 -26 -7 -66 -30 -89 -50 -24 -20 -49 -36 -56 -36 -7 0 -30 -15 -50
-33 -41 -35 -107 -82 -154 -108 -17 -10 -79 -22 -147 -29 -88 -9 -127 -18
-157 -36 -22 -12 -62 -28 -90 -34 -27 -6 -70 -24 -95 -40 -25 -15 -56 -31 -70
-35 -14 -4 -44 -25 -66 -45 -30 -28 -56 -41 -96 -49 -30 -7 -72 -21 -93 -32
-21 -11 -67 -30 -103 -41 -36 -11 -89 -33 -116 -48 -28 -15 -64 -31 -81 -35
-16 -3 -45 -18 -63 -32 -19 -14 -57 -34 -84 -44 -28 -10 -61 -27 -72 -38 -12
-11 -46 -31 -76 -45 -66 -31 -174 -93 -216 -123 -17 -12 -53 -27 -80 -33 -27
-6 -69 -24 -94 -40 -25 -16 -67 -34 -94 -40 -27 -6 -68 -24 -90 -41 -22 -16
-59 -34 -81 -40 -22 -6 -60 -23 -85 -39 -25 -16 -65 -34 -89 -40 -25 -6 -58
-22 -75 -35 -17 -13 -56 -34 -87 -48 -31 -14 -60 -30 -63 -36 -4 -6 -34 -25
-66 -41 -32 -16 -62 -35 -65 -41 -4 -6 -36 -24 -70 -39 -34 -15 -66 -34 -70
-40 -4 -7 -31 -23 -59 -35 -29 -13 -65 -34 -82 -48 -16 -13 -45 -29 -65 -36
-20 -6 -45 -21 -55 -33 -11 -11 -44 -32 -74 -45 -30 -14 -66 -35 -80 -48 -14
-13 -41 -31 -61 -39 -20 -8 -50 -26 -65 -39 -16 -13 -45 -32 -64 -42 -19 -10
-50 -31 -68 -46 -18 -16 -41 -29 -52 -29 -10 0 -47 -15 -82 -33 -35 -19 -80
-40 -101 -46 -21 -7 -50 -23 -66 -37 -16 -13 -48 -33 -72 -44 -46 -22 -117
-68 -184 -120 -22 -17 -60 -45 -85 -61 -90 -59 -174 -119 -228 -165 -20 -17
-53 -42 -73 -55 -20 -13 -62 -42 -95 -63 -32 -22 -70 -50 -84 -62 -65 -60
-195 -171 -219 -189 -15 -11 -61 -50 -102 -86 -41 -36 -91 -76 -112 -88 -20
-12 -37 -27 -37 -32 0 -13 -142 -77 -209 -95 -57 -15 -147 -4 -276 32 -27 7
-68 18 -90 24 -84 20 -259 186 -300 283 -7 18 -29 56 -48 84 -19 28 -38 68
-42 89 -3 21 -18 60 -31 87 -14 27 -34 88 -44 136 -10 49 -30 115 -43 147 -14
33 -30 79 -37 104 -6 25 -23 64 -36 87 -13 23 -31 70 -40 105 -9 35 -29 81
-45 103 -16 22 -36 65 -45 95 -9 30 -26 69 -38 85 -13 17 -35 55 -49 85 -15
30 -47 89 -72 130 -25 41 -58 101 -75 132 -16 31 -34 59 -40 63 -6 3 -26 39
-46 78 -81 162 -93 184 -109 197 -9 8 -28 37 -42 64 -14 28 -37 65 -50 81 -13
17 -35 46 -49 65 -69 101 -97 140 -136 187 -24 29 -70 85 -103 125 -63 77
-143 156 -228 226 -29 23 -93 77 -144 120 -50 42 -117 97 -148 122 -31 25 -76
63 -100 85 -58 54 -96 87 -121 105 -31 21 -202 219 -244 281 -19 28 -49 70
-65 93 -35 47 -83 130 -131 228 -18 36 -38 69 -44 73 -7 4 -25 36 -40 70 -15
34 -33 66 -39 70 -6 3 -25 33 -41 65 -16 32 -34 62 -40 65 -6 4 -24 34 -40 68
-17 33 -36 67 -44 76 -8 9 -28 45 -45 81 -17 36 -50 97 -73 135 -62 106 -154
286 -168 331 -7 21 -21 54 -32 72 -11 18 -26 60 -34 95 -8 34 -26 81 -39 104
-14 23 -32 70 -41 105 -9 35 -27 80 -40 101 -16 25 -32 74 -44 138 -11 56 -30
117 -43 141 -14 24 -30 68 -37 98 -7 30 -24 76 -37 102 -17 31 -31 89 -43 166
-10 65 -26 136 -35 158 -19 44 -29 115 -50 359 -14 171 -34 299 -52 345 -6 14
-14 53 -18 86 -14 128 -85 176 -219 150 -50 -10 -148 -101 -183 -171 -14 -27
-35 -63 -46 -78 -11 -16 -28 -55 -38 -86 -9 -32 -29 -75 -43 -95 -14 -21 -28
-58 -31 -84 -4 -26 -16 -87 -26 -137 -10 -49 -19 -115 -19 -147 0 -50 -4 -63
-25 -84 -40 -40 -65 -17 -87 77 -10 41 -31 117 -47 169 -17 52 -33 118 -37
145 -9 68 -31 167 -53 234 -10 31 -29 121 -41 201 -12 80 -31 170 -41 201 -11
31 -24 101 -29 155 -5 55 -18 133 -30 174 -44 156 -48 177 -55 265 -3 50 -17
123 -30 165 -14 41 -34 135 -45 208 -11 73 -27 149 -35 170 -19 49 -45 160
-45 196 0 66 -87 186 -133 186 -48 0 -153 -120 -189 -214 -11 -27 -28 -65 -38
-86 -20 -39 -53 -151 -75 -253 -15 -72 -51 -115 -83 -98 -25 13 -30 27 -47
124 -8 43 -24 94 -36 113 -12 19 -29 65 -39 102 -9 37 -28 84 -43 105 -16 23
-30 64 -37 108 -7 39 -23 95 -36 124 -14 29 -31 88 -40 132 -8 43 -28 112 -44
155 -16 42 -35 109 -41 149 -6 40 -24 101 -39 135 -16 34 -34 90 -40 125 -7
35 -20 84 -31 109 -10 25 -26 81 -34 125 -26 137 -95 192 -209 166 -66 -15
-159 -92 -203 -170 -15 -25 -37 -58 -49 -73 -12 -15 -30 -51 -39 -80 -10 -29
-26 -67 -36 -84 -10 -17 -32 -82 -48 -145 -16 -63 -38 -134 -47 -159 -15 -38
-18 -88 -20 -335 -2 -159 -6 -300 -8 -311 -14 -56 -70 -29 -81 39 -4 23 -20
71 -35 107 -16 36 -34 85 -40 110 -7 25 -23 61 -36 82 -14 20 -32 62 -40 95
-9 32 -28 78 -44 103 -16 25 -33 63 -39 85 -6 22 -27 65 -46 95 -19 30 -35 61
-35 70 0 9 -18 52 -40 95 -22 43 -40 83 -40 89 0 6 -18 40 -40 76 -22 36 -40
72 -40 80 0 8 -18 44 -40 80 -22 36 -40 71 -40 79 0 32 -89 169 -147 227 -35
34 -63 69 -63 78 0 14 -14 16 -90 16 -83 0 -90 -2 -90 -20z m70 -669 c11 -17
29 -33 40 -36 23 -7 44 -45 55 -95 4 -19 20 -54 36 -77 16 -23 29 -45 29 -50
0 -5 16 -36 36 -69 20 -32 44 -87 54 -122 9 -34 29 -79 43 -100 14 -20 30 -56
36 -78 6 -23 24 -58 40 -77 16 -20 34 -58 40 -83 7 -26 25 -66 41 -88 17 -23
34 -64 40 -94 11 -58 21 -82 45 -102 8 -7 22 -37 31 -66 8 -30 26 -67 39 -83
13 -15 33 -53 45 -83 11 -30 30 -64 42 -74 11 -11 29 -39 40 -64 11 -25 27
-54 37 -65 10 -11 26 -42 36 -68 10 -27 28 -55 41 -63 12 -9 30 -34 39 -57 16
-39 49 -82 129 -167 18 -20 36 -45 40 -57 4 -12 18 -28 31 -37 13 -9 33 -37
45 -63 12 -27 32 -59 45 -73 13 -14 29 -45 35 -70 6 -25 22 -56 35 -70 12 -14
30 -41 40 -60 10 -19 30 -46 46 -58 16 -13 36 -40 45 -60 8 -20 23 -46 33 -57
10 -11 28 -38 39 -60 11 -22 30 -49 42 -60 12 -11 30 -36 40 -56 10 -19 26
-42 35 -49 9 -8 27 -34 40 -59 12 -25 33 -55 45 -66 12 -11 33 -41 45 -66 13
-25 31 -51 40 -59 9 -7 26 -31 37 -53 11 -22 61 -87 111 -144 51 -58 102 -119
114 -135 25 -36 101 -108 113 -108 34 0 31 50 -4 79 -8 7 -20 29 -27 49 -6 19
-31 62 -55 95 -24 33 -44 65 -44 72 0 8 -11 27 -25 44 -14 16 -34 55 -45 86
-11 32 -29 72 -40 90 -12 19 -30 66 -41 105 -10 39 -30 88 -44 108 -14 21 -30
64 -36 96 -6 32 -26 88 -45 123 -19 36 -34 77 -34 91 0 25 -9 44 -53 104 -10
14 -21 59 -27 107 -8 57 -20 100 -40 139 -21 39 -33 82 -40 137 -11 87 -33
173 -57 219 -8 16 -19 64 -23 105 -6 72 -23 164 -57 328 -10 46 -15 132 -16
240 -1 169 -1 169 31 238 24 50 35 92 41 154 10 99 35 134 75 108 45 -30 93
-146 100 -243 14 -187 28 -275 52 -335 17 -41 28 -95 34 -162 6 -68 20 -132
40 -192 17 -52 35 -129 40 -181 11 -103 12 -110 46 -180 17 -34 28 -82 34
-143 8 -68 17 -106 40 -150 16 -33 32 -79 36 -103 3 -24 21 -69 40 -100 19
-31 39 -80 44 -108 6 -33 21 -64 38 -85 16 -18 34 -52 40 -77 6 -24 24 -61 40
-81 16 -20 35 -57 41 -82 6 -25 27 -75 46 -111 19 -36 35 -76 35 -89 0 -12 16
-46 36 -75 25 -36 38 -70 45 -113 6 -34 17 -71 25 -82 8 -11 21 -29 29 -41 8
-11 19 -44 25 -74 6 -31 25 -76 44 -104 52 -78 74 -116 102 -176 14 -30 39
-70 55 -90 15 -19 46 -57 66 -83 21 -27 55 -67 76 -89 20 -23 42 -58 47 -78 5
-20 23 -49 39 -64 16 -16 35 -42 42 -60 7 -17 28 -48 46 -69 18 -20 33 -42 33
-47 0 -13 78 -98 101 -110 36 -20 41 14 9 55 -16 21 -30 44 -30 51 0 7 -18 34
-40 59 -22 25 -40 52 -40 59 0 6 -16 27 -35 46 -19 18 -39 48 -45 65 -6 17
-26 47 -45 65 -19 19 -35 42 -35 53 0 23 -16 55 -45 87 -24 27 -135 257 -135
279 0 7 -16 48 -35 91 -19 43 -35 90 -35 106 0 27 -13 83 -50 219 -17 61 -21
126 -30 510 -6 242 -8 463 -4 490 7 61 42 175 54 175 22 0 51 -129 56 -250 4
-91 15 -163 39 -265 18 -77 36 -169 40 -204 3 -36 18 -92 31 -125 14 -34 32
-103 40 -155 10 -61 25 -113 45 -151 16 -32 34 -86 40 -121 6 -40 21 -80 39
-107 28 -42 32 -53 45 -134 3 -21 16 -50 29 -65 13 -15 35 -51 49 -79 14 -27
33 -57 43 -64 9 -8 25 -35 36 -60 11 -25 28 -54 38 -65 10 -11 27 -40 38 -65
11 -25 27 -52 37 -60 10 -8 31 -42 47 -75 15 -33 39 -80 53 -104 14 -24 25
-57 25 -72 0 -15 16 -58 36 -95 19 -37 40 -94 46 -126 6 -32 20 -73 32 -91 31
-46 37 -64 46 -140 5 -47 16 -79 33 -105 15 -20 33 -57 42 -81 8 -24 27 -58
42 -76 16 -18 41 -49 56 -69 15 -20 49 -47 75 -60 26 -14 66 -48 90 -76 54
-62 85 -84 111 -75 42 13 30 89 -24 145 -13 14 -34 50 -48 80 -13 30 -32 62
-42 70 -10 8 -26 35 -37 60 -11 25 -28 54 -38 65 -11 11 -27 38 -36 60 -9 22
-29 54 -44 72 -16 18 -33 53 -39 83 -6 28 -25 81 -43 117 -26 54 -33 87 -44
193 -8 70 -18 140 -24 155 -5 14 -10 102 -10 194 0 132 -3 177 -16 207 -28 68
-5 340 33 393 12 15 29 45 37 65 11 27 21 37 33 34 15 -3 18 -15 18 -78 0 -41
6 -85 13 -97 6 -12 12 -57 12 -100 0 -118 17 -240 54 -397 19 -77 36 -161 39
-186 4 -25 20 -75 36 -111 17 -35 36 -92 42 -124 6 -34 23 -79 39 -103 28 -42
32 -54 45 -133 3 -20 18 -56 34 -80 16 -24 34 -63 40 -85 6 -23 24 -58 41 -79
16 -20 32 -54 36 -74 9 -58 13 -67 44 -106 17 -22 33 -59 40 -93 7 -31 27 -88
46 -126 19 -39 34 -76 34 -83 0 -7 14 -28 30 -47 17 -19 37 -56 45 -83 8 -27
26 -60 41 -74 14 -13 35 -42 46 -64 11 -22 31 -52 45 -66 29 -32 50 -108 32
-119 -24 -15 -56 5 -131 82 -43 44 -83 78 -90 76 -29 -10 -32 -36 -8 -82 22
-41 23 -49 12 -91 -24 -88 -29 -78 128 -248 111 -120 170 -176 212 -198 21
-10 42 -27 47 -38 6 -10 26 -26 45 -35 19 -9 53 -32 76 -51 23 -19 46 -35 50
-35 4 0 27 -16 50 -35 23 -19 62 -40 86 -46 25 -6 61 -25 81 -41 20 -16 56
-34 80 -40 24 -6 59 -23 79 -39 20 -15 60 -35 90 -44 30 -9 58 -23 61 -32 3
-8 34 -28 68 -43 35 -16 66 -33 70 -39 3 -6 27 -22 53 -35 26 -13 60 -38 76
-55 17 -17 35 -31 41 -31 6 0 37 -22 70 -50 33 -27 63 -50 67 -50 4 0 23 -24
43 -52 73 -109 84 -124 120 -163 82 -89 113 -135 120 -173 3 -23 17 -50 31
-63 29 -28 33 -69 5 -69 -13 0 -24 13 -35 40 -11 28 -25 44 -48 53 -30 13 -99
64 -210 154 -22 18 -57 37 -77 43 -21 5 -49 19 -62 29 -14 10 -54 28 -90 39
-36 11 -83 32 -104 46 -21 14 -44 26 -51 26 -19 0 -184 55 -219 73 -49 26
-109 32 -128 13 -25 -26 -10 -45 52 -62 31 -9 67 -27 81 -39 14 -13 43 -28 65
-34 40 -11 107 -68 222 -191 28 -30 61 -63 72 -72 17 -15 21 -29 21 -78 0 -51
4 -64 29 -93 16 -18 41 -58 54 -89 14 -30 30 -59 36 -62 6 -4 25 -34 41 -65
16 -32 36 -61 43 -64 17 -6 67 -107 67 -134 0 -10 -11 -45 -25 -78 -13 -33
-25 -66 -25 -74 0 -7 71 -84 158 -171 185 -183 245 -272 257 -375 9 -71 17
-89 61 -131 70 -66 30 -124 -72 -105 -32 6 -59 11 -60 11 -2 0 -18 13 -36 29
-18 15 -59 36 -90 45 -63 18 -81 44 -59 84 18 34 12 60 -19 82 -16 12 -44 41
-60 65 -17 25 -50 56 -74 70 -52 30 -62 50 -41 79 8 12 22 31 31 43 14 20 14
23 -6 40 -11 10 -41 38 -66 62 -45 43 -45 43 -123 40 -71 -4 -82 -7 -134 -43
-90 -62 -85 -90 19 -106 52 -8 63 -14 94 -52 19 -23 60 -68 90 -101 l54 -58
-28 -53 c-27 -49 -28 -54 -13 -82 22 -42 45 -60 102 -77 28 -8 71 -25 97 -36
26 -12 86 -28 135 -35 52 -9 108 -25 137 -40 62 -32 94 -33 156 -1 88 45 113
35 253 -99 40 -37 88 -79 107 -91 89 -59 120 -99 120 -154 0 -48 3 -55 43 -92
23 -22 65 -52 92 -66 28 -14 62 -37 76 -52 15 -14 52 -46 84 -71 31 -25 71
-59 89 -76 86 -85 135 -121 173 -127 21 -4 59 -20 83 -36 25 -16 69 -34 98
-41 32 -7 68 -25 93 -46 23 -19 47 -34 54 -34 8 0 35 -18 60 -40 25 -22 50
-40 54 -40 13 0 291 -279 366 -367 116 -137 125 -150 171 -239 58 -114 63
-213 15 -298 -16 -28 -34 -78 -40 -110 -6 -33 -19 -70 -28 -84 -10 -13 -29
-43 -43 -65 -14 -23 -44 -53 -67 -67 -22 -14 -53 -34 -69 -45 -23 -16 -48 -21
-134 -23 -112 -4 -146 4 -200 47 -14 11 -53 25 -88 30 -35 6 -84 22 -108 36
-24 14 -76 32 -114 39 -42 8 -88 26 -117 44 -27 17 -66 38 -88 47 -22 9 -52
28 -67 42 -33 31 -85 42 -205 43 -91 0 -94 1 -130 33 -115 102 -111 101 -393
110 -187 5 -271 12 -315 24 -33 9 -121 20 -195 23 -81 4 -155 14 -184 24 -39
12 -89 16 -234 16 l-185 0 -57 60 c-57 60 -57 60 -128 60 -86 0 -114 11 -147
61 -15 23 -45 49 -74 63 -27 14 -51 32 -55 41 -12 32 -6 83 13 106 25 33 61
105 61 123 0 39 -44 49 -183 43 -212 -9 -279 0 -321 46 -24 26 -42 37 -63 37
-16 0 -47 10 -70 22 -23 13 -68 37 -100 54 -32 18 -67 41 -77 53 -11 12 -38
31 -60 41 -23 11 -55 31 -73 44 -18 13 -50 26 -73 30 -52 8 -74 31 -94 98 -25
87 -53 120 -121 143 -96 33 -119 87 -85 206 18 62 -1 93 -62 109 -78 19 -146
57 -164 92 -15 29 -15 45 -5 164 19 210 18 211 -251 223 -352 16 -528 2 -528
-41 0 -21 84 -88 121 -98 21 -6 51 -21 66 -34 40 -33 62 -43 118 -51 28 -3 69
-18 93 -31 24 -14 65 -32 92 -40 58 -17 70 -35 70 -105 0 -49 3 -54 46 -93 85
-76 90 -113 20 -148 -22 -11 -54 -33 -71 -48 -16 -15 -47 -33 -67 -40 -58 -18
-87 -72 -53 -100 9 -7 57 -14 120 -16 124 -4 175 -21 175 -57 0 -38 -21 -48
-137 -63 -59 -8 -142 -25 -183 -39 -41 -13 -101 -29 -132 -34 -31 -6 -79 -21
-105 -34 -26 -13 -82 -32 -123 -41 -45 -10 -93 -28 -120 -46 -25 -16 -51 -30
-59 -30 -8 0 -58 -20 -110 -44 -53 -25 -118 -48 -146 -52 -27 -4 -77 -20 -110
-35 -90 -43 -298 -44 -366 -1 -24 15 -63 36 -87 46 -109 49 -107 156 5 171 26
4 85 22 130 41 49 20 109 36 150 40 37 4 104 20 148 36 45 16 119 33 170 38
148 16 164 20 211 56 38 29 52 34 102 34 64 0 88 10 79 34 -8 20 -58 21 -95 2
-32 -15 -129 -31 -302 -47 -68 -6 -153 -20 -189 -30 -36 -11 -86 -19 -111 -19
-25 0 -63 -6 -85 -14 -22 -7 -99 -16 -170 -20 -138 -6 -219 -22 -288 -57 -38
-20 -57 -22 -217 -22 -175 0 -175 0 -255 43 -129 68 -131 74 -51 152 124 122
256 200 360 213 63 8 148 58 154 90 3 15 -1 17 -30 11 -82 -17 -404 -45 -529
-45 -66 -1 -125 -7 -159 -17 -117 -35 -394 -3 -421 47 -30 57 70 146 180 160
37 4 100 20 141 34 41 14 120 33 174 41 72 11 119 25 170 49 38 19 78 35 87
35 10 0 64 11 121 25 67 17 155 29 253 35 181 12 195 15 195 40 0 13 -11 22
-37 30 -60 18 -767 25 -1064 11 -310 -15 -319 -14 -394 63 -30 31 -55 63 -55
70 0 32 161 206 191 206 5 0 26 15 46 34 21 18 58 43 83 54 25 12 56 30 70 42
43 34 261 71 402 68 100 -3 120 0 134 14 36 35 -15 88 -84 88 -15 0 -52 8 -82
17 -46 14 -120 18 -465 22 -338 5 -421 9 -470 23 -33 9 -72 19 -87 22 -23 5
-53 28 -124 93 -49 45 -23 163 35 163 11 0 50 16 87 36 54 28 84 37 154 44
111 12 222 36 262 56 39 20 228 34 506 37 241 3 284 14 290 74 3 28 -1 33 -25
40 -58 16 -961 7 -1041 -11 -91 -20 -237 -20 -317 -1 -33 8 -101 14 -150 15
-107 0 -165 23 -203 80 -31 46 -26 111 12 149 27 26 27 26 226 26 168 0 202 3
215 16 27 27 -11 69 -63 69 -9 0 -55 14 -102 30 -69 25 -111 32 -224 40 -109
7 -146 14 -175 30 -20 11 -54 29 -77 40 -57 27 -76 53 -82 108 -7 83 60 144
185 166 43 8 101 23 129 34 78 31 134 37 180 17 55 -23 320 -59 351 -48 18 7
24 32 13 53 -13 25 -147 68 -246 80 -44 5 -128 25 -186 44 -59 20 -116 36
-126 36 -10 0 -34 11 -53 25 -19 14 -54 35 -79 46 -25 12 -64 38 -86 58 -23
20 -57 46 -75 58 -123 82 -137 93 -152 132 -9 22 -30 55 -47 74 -16 19 -37 52
-46 73 -9 22 -25 49 -37 62 -35 37 -37 140 -4 178 25 29 26 29 154 32 145 4
247 -9 340 -44 38 -14 106 -29 165 -35 73 -7 116 -18 161 -39 34 -15 87 -33
118 -40 32 -6 65 -20 75 -31 61 -68 376 -172 411 -136 12 12 14 22 7 36 -12
25 -97 89 -150 112 -23 10 -48 26 -55 36 -8 9 -37 26 -64 39 -28 12 -57 29
-65 39 -18 22 -57 41 -101 49 -20 3 -46 18 -59 31 -14 14 -52 34 -89 46 -36
11 -72 26 -81 33 -32 28 -65 38 -155 47 -78 7 -105 14 -160 44 -37 19 -75 35
-85 35 -11 0 -43 20 -72 45 -109 92 -124 103 -164 123 -22 11 -46 28 -54 37
-7 9 -27 23 -42 31 -28 14 -177 162 -263 261 -70 79 -79 109 -45 143 29 29 75
25 158 -16 48 -24 96 -39 142 -45 39 -4 98 -21 135 -38 37 -17 82 -33 101 -36
19 -3 49 -7 68 -10 19 -3 50 -19 71 -35 21 -17 55 -32 80 -36 24 -3 67 -21 96
-39 28 -19 68 -37 89 -40 21 -4 58 -19 83 -35 24 -15 69 -35 99 -44 30 -8 71
-29 92 -45 20 -16 58 -34 85 -41 27 -6 59 -22 71 -35 13 -14 44 -31 70 -40 26
-9 59 -29 75 -45 15 -15 40 -34 56 -40 15 -7 35 -23 44 -36 8 -13 32 -32 53
-43 21 -11 45 -27 52 -36 8 -9 37 -28 64 -42 28 -14 65 -36 81 -49 60 -45 116
-53 129 -18 9 22 2 30 -104 128 -157 144 -183 165 -264 213 -16 10 -49 35 -72
56 -23 21 -58 43 -77 48 -19 5 -51 22 -71 38 -19 16 -57 34 -83 41 -27 6 -61
22 -78 34 -16 13 -53 31 -81 40 -28 9 -62 28 -75 42 -13 13 -47 31 -75 40 -29
8 -69 28 -89 44 -39 31 -48 34 -107 45 -21 3 -51 17 -67 31 -16 13 -46 31 -68
40 -21 9 -55 32 -76 50 -20 19 -41 34 -46 34 -13 0 -133 120 -155 155 -32 51
-238 292 -286 335 -16 14 -35 39 -43 56 -9 17 -23 37 -32 44 -9 8 -28 36 -41
63 -14 27 -38 67 -54 89 -90 123 -6 224 105 127 18 -16 50 -36 71 -45 22 -9
50 -27 65 -40 14 -13 52 -34 85 -47 32 -13 77 -36 98 -50 21 -15 48 -27 60
-27 12 0 33 -8 47 -18 78 -52 96 -62 111 -62 9 0 38 -18 65 -40 101 -83 117
-96 159 -125 23 -16 75 -58 115 -93 126 -107 153 -128 184 -145 17 -8 47 -29
69 -46 41 -33 92 -41 114 -19 19 19 17 21 -90 113 -140 118 -204 174 -242 210
-17 17 -49 44 -71 60 -104 75 -272 267 -330 375 -20 36 -38 60 -122 160 -24
28 -43 55 -43 60 0 5 -13 24 -29 43 -16 18 -40 57 -54 87 -13 30 -31 61 -40
69 -10 7 -24 38 -33 67 -8 30 -31 72 -50 95 -19 22 -34 47 -34 55 0 7 -13 28
-29 46 -16 18 -36 51 -45 73 -10 22 -30 52 -47 67 -48 44 -33 120 21 103 11
-4 40 -23 65 -43 56 -47 161 -124 211 -155 72 -43 189 -133 325 -247 20 -16
57 -42 83 -56 25 -14 50 -32 54 -41 5 -8 20 -22 35 -32 28 -18 133 -113 267
-241 43 -41 102 -93 130 -115 29 -22 72 -57 97 -78 24 -20 57 -44 71 -51 15
-8 36 -24 47 -36 28 -32 101 -80 119 -80 34 0 17 54 -39 125 -30 39 -63 83
-72 99 -10 15 -35 49 -55 74 -21 26 -38 52 -38 58 0 6 -15 27 -32 47 -18 20
-53 61 -78 92 -25 31 -59 73 -76 93 -17 20 -38 51 -47 68 -9 17 -32 51 -51 75
-19 24 -51 64 -71 89 -19 25 -50 62 -67 83 -17 21 -45 60 -62 87 -71 110 -106
158 -121 164 -8 3 -24 25 -34 48 -10 24 -26 50 -35 58 -10 7 -28 35 -42 62
-13 26 -33 52 -44 58 -11 6 -29 28 -40 50 -11 22 -29 44 -40 50 -10 6 -24 28
-30 49 -5 21 -25 58 -44 82 -18 24 -43 63 -54 86 -12 23 -26 45 -32 48 -6 4
-24 33 -40 66 -17 32 -35 59 -41 59 -13 0 -39 62 -39 93 0 13 -13 38 -30 55
-30 32 -39 65 -20 77 17 10 47 -13 58 -45 7 -17 22 -34 37 -40 14 -5 34 -24
43 -41 20 -37 219 -237 292 -294 29 -22 72 -57 97 -77 24 -21 48 -38 53 -38 5
0 32 -19 59 -42 55 -46 111 -91 179 -141 24 -18 56 -41 70 -52 15 -11 113
-107 218 -213 106 -105 196 -192 200 -192 5 0 26 -17 49 -38 44 -43 123 -77
154 -67 61 19 20 93 -142 258 -59 59 -110 115 -115 124 -5 8 -41 50 -80 92
-80 86 -136 152 -202 237 -25 32 -59 72 -76 88 -17 17 -39 45 -48 63 -9 18
-23 36 -32 41 -9 5 -28 29 -43 54 -51 87 -86 141 -117 177 -17 20 -37 53 -44
74 -7 21 -25 53 -40 70 -15 18 -34 46 -43 62 -8 17 -25 39 -36 49 -12 11 -30
38 -40 61 -10 23 -32 57 -50 77 -17 20 -31 40 -31 46 0 6 -16 29 -35 52 -19
23 -40 60 -46 83 -6 23 -24 57 -40 75 -23 26 -29 42 -29 77 0 44 -5 52 -54 93
-20 16 -21 46 -1 62 19 16 33 6 51 -38 8 -21 29 -46 47 -57 20 -13 37 -35 44
-58 7 -21 30 -55 50 -76 47 -49 90 -102 131 -162 17 -25 48 -61 69 -79 21 -18
52 -54 68 -80 35 -55 141 -184 203 -246 23 -24 42 -48 42 -54 0 -6 118 -129
263 -273 144 -144 276 -280 292 -302 16 -22 72 -91 125 -154 107 -128 146
-176 191 -241 46 -64 118 -142 154 -164 16 -11 65 -51 109 -90 142 -127 196
-155 196 -102 0 36 -156 218 -404 470 -107 109 -171 185 -211 251 -23 37 -82
116 -131 173 -17 20 -41 56 -53 79 -11 23 -25 45 -31 48 -6 4 -21 27 -34 53
-13 26 -34 56 -46 67 -12 11 -33 43 -45 71 -13 28 -28 55 -34 58 -6 4 -22 29
-35 55 -14 26 -32 54 -42 62 -9 8 -29 41 -44 74 -15 33 -34 66 -44 74 -9 7
-23 38 -32 68 -9 30 -29 70 -46 88 -16 19 -34 50 -39 69 -5 20 -21 49 -35 65
-13 16 -33 54 -43 83 -10 29 -30 70 -44 92 -15 21 -29 54 -33 75 -8 43 -27 83
-48 100 -8 7 -22 36 -32 64 -9 29 -30 73 -46 99 -16 25 -33 69 -37 97 -4 28
-20 68 -35 90 -15 21 -34 65 -42 98 -9 32 -31 85 -49 119 -19 34 -37 83 -41
112 -4 35 -16 64 -35 89 -31 39 -38 83 -14 103 24 20 55 1 75 -45 10 -24 28
-49 40 -55 12 -6 30 -32 41 -57 11 -26 34 -64 52 -84 66 -79 85 -105 105 -147
20 -42 42 -72 113 -155 20 -23 42 -59 49 -80 7 -21 25 -53 40 -70 15 -18 35
-48 45 -67 9 -19 25 -43 34 -53 8 -11 27 -38 41 -62 38 -65 78 -119 152 -204
36 -43 75 -92 85 -108 10 -17 49 -64 85 -104 116 -128 158 -179 158 -194 0 -8
13 -29 29 -47 15 -18 36 -49 46 -68 10 -19 33 -53 52 -75 18 -22 66 -78 106
-125 40 -47 84 -103 99 -125 15 -22 48 -65 73 -95 25 -30 53 -68 63 -84 9 -16
29 -43 43 -60 14 -17 34 -47 44 -66 10 -19 35 -55 57 -80 22 -25 55 -63 74
-85 18 -22 64 -76 102 -120 38 -44 82 -101 99 -126 60 -88 138 -141 158 -108
4 6 -3 42 -15 80 -20 61 -37 86 -134 199 -116 136 -196 241 -196 258 0 6 -16
31 -35 56 -19 25 -42 63 -50 83 -9 21 -24 47 -35 58 -10 11 -28 43 -40 70 -12
28 -29 59 -39 70 -20 22 -41 77 -41 109 0 11 -16 46 -35 77 -19 32 -40 81 -45
110 -6 28 -24 73 -40 98 -17 25 -33 57 -36 71 -13 66 -25 98 -44 115 -11 10
-30 50 -41 89 -12 39 -32 89 -45 111 -12 22 -27 67 -32 100 -6 33 -24 95 -41
137 -31 78 -50 195 -51 308 -1 30 -7 66 -15 80 -8 14 -14 47 -15 73 0 26 -7
64 -16 85 -8 20 -19 87 -24 147 -5 77 -16 134 -35 190 -32 94 -54 209 -55 283
0 36 -7 65 -22 91 -36 63 0 100 42 42z m19275 -2927 c9 -4 26 -27 36 -51 25
-58 28 -352 5 -418 -8 -22 -19 -94 -25 -160 -8 -95 -16 -136 -41 -197 -17 -43
-35 -112 -40 -155 -7 -53 -20 -97 -40 -136 -21 -40 -34 -84 -40 -135 -7 -51
-20 -96 -39 -133 -16 -30 -33 -84 -39 -120 -6 -40 -21 -83 -40 -114 -17 -28
-35 -75 -42 -105 -6 -30 -24 -75 -40 -100 -16 -25 -34 -67 -40 -94 -6 -27 -24
-68 -41 -90 -16 -22 -32 -57 -35 -77 -4 -20 -17 -54 -30 -75 -13 -22 -33 -59
-45 -84 -12 -25 -32 -58 -44 -75 -13 -16 -28 -48 -35 -69 -7 -22 -21 -54 -32
-71 -31 -54 3 -86 88 -82 72 3 94 -36 48 -84 -16 -17 -30 -46 -35 -75 -5 -27
-20 -64 -34 -84 -26 -38 -40 -74 -49 -131 -4 -20 -20 -53 -36 -74 -16 -20 -36
-60 -44 -89 -9 -30 -22 -59 -30 -65 -8 -7 -27 -43 -41 -81 -14 -38 -33 -74
-42 -82 -9 -7 -26 -35 -39 -63 -12 -27 -33 -61 -48 -74 -14 -13 -32 -45 -41
-72 -9 -26 -26 -54 -39 -62 -13 -9 -29 -30 -36 -49 -7 -18 -28 -53 -45 -78
-17 -25 -37 -59 -44 -77 -7 -18 -20 -38 -28 -45 -8 -6 -28 -37 -44 -67 -41
-77 -111 -163 -145 -178 -22 -9 -229 -12 -894 -12 -732 -1 -874 -3 -925 -15
-33 -9 -83 -15 -111 -16 -28 0 -68 -7 -87 -15 -22 -9 -68 -15 -114 -15 -172 0
-300 -18 -362 -50 -32 -17 -87 -35 -122 -41 -40 -6 -80 -21 -107 -39 -42 -28
-54 -32 -133 -44 -19 -4 -51 -18 -70 -32 -19 -13 -57 -32 -86 -40 -28 -8 -68
-28 -88 -44 -23 -18 -54 -31 -83 -35 -65 -9 -107 -23 -135 -45 -14 -11 -47
-29 -73 -41 -27 -11 -58 -29 -69 -39 -11 -10 -40 -28 -65 -38 -51 -23 -270
-229 -270 -255 0 -17 26 -47 41 -47 17 0 52 21 87 51 18 16 43 29 55 29 22 0
65 21 110 53 13 10 49 22 80 27 31 5 84 22 119 39 35 16 96 35 137 41 44 6 91
21 117 36 26 16 78 32 131 41 52 9 110 27 143 44 33 17 84 32 129 39 49 7 92
20 125 40 37 21 74 32 134 39 46 6 111 22 145 37 88 38 155 42 727 50 376 4
521 10 568 20 35 8 87 14 117 14 30 0 80 7 112 15 81 21 172 19 233 -5 28 -11
60 -20 70 -20 27 0 60 -35 60 -64 0 -17 -19 -42 -64 -83 -35 -32 -71 -73 -80
-90 -9 -18 -29 -39 -44 -47 -15 -8 -59 -45 -99 -83 -40 -37 -91 -80 -115 -96
-85 -54 -142 -97 -150 -111 -4 -8 -37 -24 -73 -36 -36 -12 -67 -26 -71 -31
-13 -22 -87 -49 -150 -55 -38 -4 -84 -13 -103 -20 -44 -18 -190 -18 -278 0
-135 27 -1793 43 -1866 18 -48 -18 -146 -129 -171 -197 -11 -28 -31 -65 -44
-83 -33 -43 -42 -130 -17 -155 26 -26 61 -20 102 17 21 18 55 39 76 45 21 7
50 23 66 37 16 13 50 33 76 44 26 11 60 31 75 44 31 25 168 63 195 52 9 -3 22
-21 30 -40 28 -65 74 -72 135 -21 46 38 70 43 94 19 25 -25 19 -59 -19 -104
-74 -89 -12 -148 90 -85 22 13 67 37 100 53 33 16 66 36 74 45 7 10 41 26 76
36 34 11 78 31 98 44 43 29 65 33 242 44 204 13 241 8 251 -31 9 -38 -11 -63
-68 -82 -29 -9 -65 -27 -80 -40 -15 -12 -44 -28 -65 -34 -21 -7 -61 -25 -88
-41 -35 -19 -75 -31 -129 -38 -62 -7 -87 -16 -122 -40 -23 -17 -58 -34 -76
-38 -40 -7 -80 -27 -97 -47 -7 -8 -36 -22 -64 -32 -29 -9 -73 -29 -98 -45 -32
-20 -67 -32 -112 -37 -36 -5 -76 -16 -88 -25 -13 -9 -34 -24 -45 -32 -12 -9
-50 -20 -85 -26 -35 -6 -93 -23 -131 -40 -113 -49 -147 -49 -196 0 -22 22 -47
41 -56 41 -8 0 -38 20 -66 45 -55 49 -66 51 -167 35 -79 -13 -137 4 -173 51
-77 100 -98 106 -187 59 -31 -16 -69 -30 -85 -30 -56 0 -143 -55 -150 -95 -4
-28 96 -76 177 -85 54 -7 125 -22 237 -51 68 -18 110 -118 80 -190 -10 -25
-111 -127 -176 -179 -31 -25 -87 -73 -124 -108 -37 -34 -90 -75 -118 -91 -28
-17 -54 -37 -57 -45 -3 -8 -23 -24 -44 -35 -21 -10 -49 -31 -62 -45 -13 -14
-49 -33 -79 -41 -30 -9 -71 -27 -91 -41 -20 -13 -64 -29 -96 -35 -33 -6 -83
-24 -112 -40 -43 -25 -69 -31 -165 -40 -91 -8 -124 -15 -173 -39 -33 -16 -76
-36 -96 -43 -30 -12 -39 -23 -58 -75 -38 -107 -107 -146 -274 -156 -107 -7
-107 -7 -140 28 -17 18 -52 44 -77 56 -25 11 -65 32 -90 46 -77 42 -208 33
-330 -23 -35 -16 -84 -29 -135 -33 -56 -6 -99 -17 -145 -39 -37 -17 -96 -35
-138 -41 -44 -6 -96 -22 -132 -40 -46 -23 -82 -32 -162 -41 -66 -7 -125 -20
-163 -36 -84 -34 -115 -41 -235 -49 -58 -4 -122 -13 -144 -20 -26 -10 -91 -14
-200 -14 -121 -1 -167 -4 -186 -15 -37 -21 -363 -21 -413 0 -23 9 -68 15 -120
15 -58 0 -100 6 -142 21 -83 29 -88 32 -158 102 -34 35 -77 69 -95 76 -42 17
-90 104 -71 127 16 19 56 18 131 -6 52 -17 99 -22 278 -26 145 -4 230 -10 259
-20 59 -19 230 -18 301 1 34 9 103 15 180 15 369 1 534 44 464 121 -23 25
-314 29 -384 4 -71 -25 -936 -22 -1045 4 -44 10 -108 22 -142 26 -35 4 -89 20
-125 37 -34 16 -85 34 -112 39 -28 5 -61 17 -75 27 -14 9 -52 29 -86 43 -53
22 -60 29 -63 56 -6 59 -19 58 658 53 1595 -10 1902 -5 1968 36 43 28 23 49
-66 74 -86 24 -123 25 -188 5 -69 -21 -419 -21 -488 0 -72 22 -641 22 -753 0
-71 -14 -86 -14 -172 1 -87 16 -98 16 -170 0 -73 -17 -79 -17 -161 3 -92 21
-95 24 -156 121 -38 60 -44 112 -17 142 19 21 115 23 328 8 148 -10 152 -8
135 77 -17 87 -3 128 62 184 82 71 87 72 207 65 96 -7 292 -39 313 -52 13 -8
491 -38 578 -36 49 1 94 -5 130 -16 69 -23 260 -22 335 1 37 12 119 17 325 21
289 5 415 20 474 54 106 62 -22 107 -189 67 -85 -21 -406 -21 -465 0 -61 22
-499 22 -560 0 -54 -19 -186 -19 -265 0 -33 8 -96 15 -140 15 -101 0 -135 10
-188 55 -66 57 -88 123 -52 158 46 46 81 49 723 52 650 3 714 7 847 53 62 21
81 32 83 48 6 40 -13 43 -208 34 -193 -10 -599 -6 -805 8 -105 7 -127 12 -173
37 -87 47 -106 124 -36 141 37 9 592 -16 624 -28 27 -11 219 -20 425 -21 104
0 145 4 206 21 41 12 95 22 120 22 131 2 191 46 108 81 -23 9 -71 10 -202 3
-317 -16 -785 -4 -823 21 -44 28 -38 88 10 120 90 59 1203 39 1409 -25 100
-32 201 -28 238 9 34 34 36 54 11 79 -16 16 -43 20 -178 26 -248 11 -503 37
-549 55 -19 8 -71 11 -140 10 -127 -3 -153 3 -161 38 -8 32 4 53 42 73 16 9
49 28 74 42 101 59 257 60 368 1 47 -25 82 -36 131 -40 42 -4 88 -16 126 -34
67 -32 143 -49 217 -49 29 0 88 -13 140 -30 106 -36 143 -38 158 -10 28 52
-13 84 -135 105 -48 9 -118 28 -154 44 -36 16 -85 31 -109 35 -24 3 -66 19
-95 35 -29 16 -70 32 -93 36 -86 13 -169 99 -145 151 26 58 149 87 240 55 34
-11 76 -21 95 -21 19 0 47 -10 67 -24 68 -49 334 -173 391 -183 79 -14 26 84
-62 117 -33 12 -63 27 -67 33 -3 5 -33 22 -67 38 -67 31 -156 107 -156 134 0
45 55 85 119 85 41 0 161 -50 200 -83 18 -15 53 -32 77 -38 24 -6 60 -24 79
-39 35 -28 171 -78 182 -67 11 12 -40 119 -68 139 -34 26 -122 196 -117 228 1
13 16 32 31 44 27 20 41 21 267 21 l239 0 41 40 c23 22 50 54 61 71 20 32 80
64 121 64 14 0 43 -22 79 -61 62 -67 100 -75 114 -26 12 39 96 177 118 192 25
17 70 20 97 5 26 -14 40 -70 40 -157 0 -135 47 -133 113 5 22 48 53 102 68
119 16 18 32 49 38 69 6 20 25 51 43 69 18 17 73 80 122 138 97 116 114 127
153 102 24 -16 25 -20 19 -75 -11 -99 40 -106 88 -12 13 26 49 81 79 122 31
41 63 85 71 97 22 30 86 48 105 28 18 -18 -27 -196 -59 -230 -11 -12 -31 -48
-43 -81 -13 -32 -36 -76 -50 -98 -15 -21 -32 -57 -38 -80 -6 -22 -24 -55 -40
-73 -34 -40 -48 -98 -27 -119 23 -24 47 -5 63 49 9 30 30 66 49 87 19 19 54
67 80 105 92 139 116 168 306 364 135 140 176 188 203 244 11 23 31 53 46 68
14 15 46 53 71 84 25 31 59 73 76 93 17 21 41 55 52 77 11 22 32 51 46 64 14
14 26 30 26 36 0 6 15 29 34 51 18 21 42 57 54 80 11 22 28 46 37 54 9 8 25
31 36 52 11 22 27 42 35 45 18 7 99 131 121 184 18 47 44 64 73 49 20 -11 24
-23 34 -94 8 -57 25 -71 70 -56 20 6 41 20 47 31 5 11 30 42 54 69 25 28 45
55 45 60 0 4 28 40 63 78 34 38 78 88 98 110 61 70 99 50 99 -52 0 -60 -7 -85
-59 -226 -11 -30 -20 -69 -21 -87 0 -17 -15 -60 -34 -96 -19 -36 -40 -84 -46
-108 -6 -24 -22 -60 -34 -79 -28 -43 -35 -62 -46 -121 -5 -25 -22 -68 -39 -95
-16 -27 -35 -75 -40 -108 -6 -32 -24 -81 -40 -110 -16 -28 -32 -69 -36 -91 -7
-42 -27 -152 -50 -270 -24 -123 -37 -232 -31 -253 20 -62 112 -12 135 74 6 23
24 58 40 78 16 20 34 60 40 87 6 28 24 70 41 93 16 22 34 63 40 91 6 27 24 72
40 100 17 30 33 79 40 120 7 41 23 90 40 120 16 28 33 78 39 113 6 36 23 86
40 115 16 29 35 75 41 102 6 28 24 71 41 96 16 25 33 67 38 92 4 26 16 57 25
69 9 13 23 33 32 45 8 12 19 60 24 110 9 88 24 143 54 201 8 16 20 58 25 92 6
34 24 89 41 121 16 32 35 81 41 109 6 30 23 65 39 83 15 18 35 48 45 67 10 19
30 50 44 68 73 92 90 99 138 58 28 -24 28 -24 31 -187 3 -124 0 -176 -12 -219
-8 -30 -20 -103 -25 -161 -7 -74 -19 -130 -41 -188 -21 -58 -33 -113 -39 -181
-6 -80 -13 -106 -38 -151 -17 -30 -36 -82 -41 -117 -7 -41 -21 -77 -41 -105
-20 -28 -33 -62 -40 -103 -6 -37 -21 -79 -39 -108 -23 -36 -32 -65 -37 -114
-3 -37 -11 -88 -16 -114 -13 -55 0 -88 34 -88 28 0 99 103 116 168 7 24 25 64
41 89 20 31 32 65 36 106 4 35 18 81 35 112 15 29 35 81 44 116 9 34 29 81 45
103 15 23 34 66 40 96 7 30 26 84 42 120 16 35 33 93 38 127 5 38 20 83 39
116 18 32 34 79 41 121 6 38 24 97 40 130 26 53 31 79 39 186 6 98 15 145 39
215 17 50 34 123 38 163 6 63 13 81 51 140 50 76 64 86 99 78 47 -12 55 -54
44 -235 -10 -168 -20 -228 -46 -289 -26 -59 -33 -92 -44 -182 -6 -47 -24 -132
-40 -190 -16 -58 -34 -141 -40 -185 -7 -49 -23 -105 -42 -144 -17 -37 -34 -94
-40 -135 -6 -47 -20 -89 -39 -123 -28 -49 -31 -64 -40 -205 -6 -84 -17 -177
-25 -206 -29 -102 31 -221 80 -159 42 51 75 113 87 162 7 28 25 75 41 105 16
30 33 84 39 120 5 36 18 76 28 90 32 45 42 70 52 133 6 34 23 85 40 114 22 39
32 73 39 137 6 51 20 109 35 143 24 54 31 85 55 274 6 47 23 112 36 145 14 32
29 93 34 136 6 42 17 98 25 125 10 33 15 95 15 200 0 113 5 172 19 235 11 46
22 119 26 163 7 85 88 279 121 292 8 3 23 22 34 43 10 20 31 45 45 54 15 10
44 35 65 56 65 65 120 66 147 3 28 -69 0 -388 -45 -513 -11 -30 -26 -101 -32
-157 -6 -58 -23 -139 -40 -188 -16 -47 -34 -123 -41 -168 -7 -56 -20 -99 -41
-135 -21 -40 -32 -76 -39 -139 -6 -56 -20 -109 -39 -152 -21 -50 -32 -95 -40
-176 -8 -77 -20 -131 -40 -180 -15 -39 -33 -103 -39 -142 -6 -39 -24 -101 -41
-136 -34 -74 -36 -89 -14 -111 36 -36 86 -8 114 64 8 19 24 49 36 65 12 17 29
55 38 85 9 30 28 72 42 93 16 24 33 74 44 126 10 47 29 111 43 141 14 30 30
88 36 128 6 41 20 90 30 110 19 38 42 113 59 192 6 25 22 72 36 105 20 49 27
88 35 207 9 124 15 157 41 221 19 47 33 108 40 166 6 51 18 107 26 123 20 39
42 162 54 301 8 91 14 116 38 160 16 29 35 70 42 92 14 45 104 145 131 145 10
0 25 -3 34 -6z m-12811 -4880 c9 -9 16 -32 16 -54 0 -32 5 -43 28 -57 15 -9
33 -23 40 -32 14 -18 16 -87 2 -96 -32 -20 -80 39 -80 99 0 18 -9 30 -30 41
-34 17 -57 79 -38 102 14 18 43 16 62 -3z m166 -303 c16 -40 5 -71 -26 -71
-30 0 -49 37 -40 74 9 38 50 36 66 -3z m68 -163 c-2 -13 -10 -23 -18 -23 -8 0
-16 10 -18 23 -3 17 2 22 18 22 16 0 21 -5 18 -22z m-3311 -1449 c35 -13 37
-32 9 -74 -36 -52 -33 -87 9 -134 19 -21 35 -43 35 -48 0 -18 -37 -44 -76 -54
-40 -11 -124 -83 -124 -106 0 -17 3 -17 69 6 31 10 74 24 97 30 23 6 58 24 79
41 20 16 54 32 74 35 20 3 72 24 115 46 91 48 177 60 184 26 7 -35 -8 -67 -41
-83 -85 -43 -132 -128 -81 -148 21 -8 113 13 159 37 67 35 283 60 323 38 48
-26 20 -78 -53 -101 -22 -7 -56 -26 -75 -41 -19 -16 -40 -29 -46 -29 -6 0 -38
-18 -70 -40 -33 -22 -65 -40 -71 -40 -7 0 -30 -16 -51 -35 -21 -19 -59 -43
-83 -53 -24 -11 -50 -27 -58 -36 -7 -9 -32 -25 -55 -35 -22 -10 -49 -28 -60
-39 -10 -12 -44 -31 -75 -42 -31 -12 -68 -32 -82 -46 -17 -16 -45 -28 -83 -34
-31 -5 -80 -22 -109 -39 -29 -16 -81 -35 -117 -41 -35 -6 -92 -23 -125 -36
-103 -42 -322 -57 -355 -24 -36 36 -16 64 57 83 29 8 70 26 90 40 21 14 61 31
88 38 28 7 75 24 105 40 31 15 76 32 100 39 25 6 61 22 81 35 20 13 52 30 70
38 43 18 134 90 155 123 43 65 -50 57 -141 -12 -17 -13 -93 -44 -170 -71 -140
-47 -140 -47 -313 -51 -192 -4 -216 -1 -232 28 -16 29 -4 58 31 75 16 9 66 47
110 85 45 39 85 70 89 70 5 0 30 18 55 40 25 22 53 40 60 40 8 0 29 13 47 29
18 15 56 40 83 55 158 85 177 102 149 130 -8 9 -24 16 -34 16 -26 0 -149 -39
-193 -62 -21 -10 -64 -24 -95 -29 -31 -6 -78 -24 -104 -40 -41 -27 -62 -32
-180 -44 -73 -7 -146 -18 -161 -24 -47 -18 -282 -14 -301 5 -38 38 -8 89 74
126 36 16 72 35 80 43 8 7 40 23 72 35 31 11 62 27 68 35 7 8 42 24 79 35 36
12 82 32 101 45 19 13 49 27 65 30 17 4 57 15 90 25 134 41 195 54 295 61 121
8 333 1 367 -12z m5181 -129 c51 -16 107 -41 123 -55 17 -14 51 -30 76 -36 24
-7 62 -27 85 -45 22 -19 46 -34 53 -34 18 0 210 -191 229 -228 8 -15 22 -35
31 -42 9 -8 28 -37 42 -64 14 -28 36 -64 49 -79 13 -16 27 -41 30 -55 4 -15
23 -61 43 -102 36 -75 36 -75 39 -270 4 -225 1 -244 -66 -318 -47 -53 -47 -53
-137 -67 -49 -7 -118 -21 -151 -30 -61 -15 -63 -15 -138 11 -113 39 -159 18
-115 -52 27 -44 20 -61 -51 -127 -75 -69 -76 -78 -10 -112 19 -10 46 -26 60
-36 70 -51 416 -45 517 8 32 16 74 35 93 42 60 20 212 182 225 240 15 70 91
89 182 46 53 -26 70 -29 203 -32 145 -4 145 -4 220 35 54 28 75 44 75 58 0 18
-11 19 -175 25 -96 3 -194 11 -217 18 -79 22 -81 74 -5 149 52 51 82 91 82
109 0 20 -30 43 -58 43 -119 0 -163 83 -59 111 131 34 202 149 92 149 -16 0
-50 11 -75 24 -25 13 -71 31 -103 40 -47 14 -62 23 -75 48 -9 17 -25 39 -34
50 -35 36 -19 60 25 36 52 -28 725 -31 818 -4 29 9 73 16 99 16 26 0 69 7 96
15 27 8 91 19 143 25 58 6 122 22 170 40 48 19 110 34 171 41 72 8 112 18 165
44 39 18 93 36 122 39 29 4 83 21 120 39 79 37 275 56 436 43 85 -8 90 -9 140
-52 91 -76 147 -141 147 -170 0 -35 -39 -83 -87 -108 -26 -13 -59 -36 -73 -51
-40 -44 -75 -53 -183 -50 -74 3 -107 8 -140 24 -59 28 -194 29 -298 1 -41 -11
-87 -20 -104 -20 -37 0 -131 -29 -206 -63 -80 -36 -87 -68 -24 -107 37 -23 29
-25 119 27 59 35 106 1 106 -77 1 -129 124 -203 259 -154 50 18 51 18 78 -3
60 -44 28 -95 -102 -159 -218 -109 -317 -239 -274 -363 21 -60 141 -92 189
-51 16 14 30 18 44 13 37 -14 110 -9 152 10 40 18 41 18 115 -7 54 -18 92 -24
140 -23 122 3 132 -56 28 -170 -22 -24 -39 -47 -39 -52 0 -13 -318 -331 -331
-331 -5 0 -46 -36 -89 -80 -44 -43 -92 -86 -107 -93 -15 -8 -37 -25 -48 -37
-11 -12 -44 -33 -72 -46 -29 -12 -53 -28 -53 -34 0 -6 -26 -23 -57 -37 -32
-14 -73 -39 -91 -55 -70 -60 -156 -12 -106 60 22 31 14 65 -17 76 -27 9 -91
-7 -204 -51 -57 -23 -208 -37 -235 -23 -10 5 -32 34 -49 65 -30 53 -31 57 -16
85 41 79 19 90 -181 90 -127 0 -172 3 -194 15 -16 8 -66 22 -112 31 -102 19
-135 31 -143 51 -11 29 6 51 55 71 53 22 83 63 63 83 -12 12 -116 -17 -175
-47 -15 -8 -50 -14 -78 -14 -110 0 -121 -45 -32 -127 31 -29 60 -53 64 -53 4
0 28 -18 53 -40 32 -27 56 -40 76 -40 62 0 99 -33 99 -89 0 -40 20 -61 70 -72
25 -5 61 -16 80 -24 19 -8 54 -19 76 -25 32 -8 45 -17 54 -40 28 -67 44 -71
241 -69 221 3 230 -1 193 -97 -16 -41 -15 -43 10 -86 14 -25 26 -58 26 -74 -2
-74 -126 -224 -204 -245 -19 -5 -54 -25 -76 -44 -23 -19 -52 -35 -64 -35 -33
0 -85 -20 -128 -47 -23 -16 -62 -28 -108 -34 -40 -6 -109 -24 -154 -41 -74
-28 -91 -31 -190 -30 -59 1 -116 4 -126 7 -24 8 -43 56 -35 88 8 31 112 125
171 155 22 11 46 28 54 37 17 21 64 45 86 45 36 0 222 100 253 135 50 57 38
76 -30 46 -144 -63 -655 -73 -736 -14 -49 36 -89 53 -120 53 -23 0 -45 11 -78
40 -25 22 -50 40 -54 40 -18 0 -121 132 -121 154 0 13 -11 45 -25 71 -26 48
-26 48 0 84 28 41 32 73 11 90 -29 24 -46 4 -75 -88 -19 -59 -14 -196 9 -241
11 -22 20 -48 20 -58 0 -33 63 -106 235 -271 17 -16 48 -39 70 -50 36 -20 62
-36 133 -86 31 -22 28 -41 -12 -78 -19 -18 -48 -58 -66 -90 -42 -75 -36 -98
29 -131 100 -51 80 -96 -60 -131 -30 -7 -72 -20 -94 -28 -26 -10 -116 -19
-263 -27 -202 -10 -249 -9 -305 6 -22 7 -39 38 -31 58 8 20 117 104 152 117
15 6 54 23 86 40 33 16 71 29 86 29 15 0 41 5 58 11 73 25 36 84 -46 71 -26
-4 -112 -7 -192 -7 -145 0 -145 0 -240 50 -104 55 -123 70 -214 163 -91 94
-134 145 -146 177 -13 35 -81 147 -95 157 -69 50 -70 -161 -1 -261 13 -20 29
-55 35 -78 7 -23 22 -55 35 -70 13 -15 33 -47 44 -69 12 -23 37 -52 57 -64 19
-12 35 -26 35 -31 0 -5 26 -22 58 -37 67 -32 74 -49 37 -102 -22 -32 -26 -46
-20 -77 12 -71 -53 -116 -117 -82 -18 10 -20 17 -14 69 8 67 -9 96 -51 85 -54
-13 -246 15 -304 45 -31 16 -76 34 -99 40 -23 6 -52 22 -65 36 -12 13 -40 31
-61 40 -38 16 -77 46 -161 125 -47 43 -63 47 -88 22 -33 -32 -4 -86 133 -250
68 -81 69 -84 46 -107 -13 -13 -43 -16 -173 -16 -158 0 -158 0 -247 45 -88 45
-107 62 -165 153 -12 18 -29 37 -39 42 -27 14 -143 -15 -207 -51 -29 -17 -79
-34 -114 -40 -34 -5 -83 -21 -110 -34 -26 -14 -81 -30 -121 -36 -99 -14 -480
-2 -527 17 -18 8 -59 14 -90 14 -67 1 -154 42 -159 76 -6 43 29 57 176 70 75
7 153 17 172 23 19 6 93 11 165 11 119 0 245 20 285 45 26 16 9 46 -37 66 -56
24 -63 32 -63 81 0 20 -7 44 -16 52 -21 21 -125 21 -179 -1 -22 -8 -67 -18
-100 -22 -33 -4 -71 -12 -85 -18 -14 -7 -101 -16 -195 -23 -133 -8 -184 -16
-235 -34 -57 -21 -150 -35 -323 -50 -34 -2 -62 -13 -91 -34 -23 -17 -54 -34
-68 -37 -14 -4 -38 -20 -54 -36 -15 -16 -43 -34 -63 -40 -20 -7 -55 -29 -78
-50 -70 -64 -123 -51 -123 29 0 57 -12 78 -56 92 -84 28 -208 93 -243 128 -21
20 -45 43 -54 50 -10 7 -17 25 -17 39 0 26 14 42 154 168 57 51 69 82 41 105
-8 7 -15 25 -15 40 0 28 18 40 82 54 15 4 41 20 58 36 16 16 47 34 69 40 21 5
55 24 76 40 21 17 41 30 46 30 13 0 39 30 39 46 0 8 -11 24 -25 36 -14 12 -25
28 -25 36 0 8 11 27 25 44 29 35 30 41 9 63 -11 11 -24 14 -38 9 -27 -9 -83
-9 -119 1 -25 7 -34 0 -101 -68 -40 -41 -87 -82 -104 -91 -16 -8 -59 -44 -95
-78 -36 -35 -91 -85 -122 -113 -31 -27 -77 -69 -101 -92 -25 -24 -49 -43 -55
-43 -5 0 -25 -24 -44 -54 -49 -76 -90 -114 -133 -122 -20 -4 -60 -20 -88 -35
-28 -16 -64 -29 -80 -29 -54 0 -214 -95 -299 -176 l-67 -65 -137 6 c-106 6
-159 13 -241 37 -113 31 -212 47 -303 48 -32 0 -74 7 -95 16 -28 12 -54 14
-109 9 -96 -9 -99 2 -33 91 41 55 50 74 45 94 -23 92 -18 102 55 120 26 6 57
21 67 32 10 11 41 36 68 54 161 110 181 138 134 185 -27 27 -86 21 -165 -15
-30 -14 -75 -28 -101 -31 -27 -4 -73 -22 -103 -39 -30 -18 -77 -39 -105 -45
-27 -7 -69 -25 -93 -41 -24 -16 -73 -35 -109 -44 -35 -8 -82 -27 -104 -42 -34
-23 -43 -25 -64 -16 -36 17 -32 49 8 72 19 11 40 32 47 46 8 14 26 32 40 39
15 8 46 30 69 49 24 20 49 36 56 36 7 0 34 16 59 35 25 19 63 42 83 50 21 9
48 25 60 37 51 48 218 77 444 78 155 0 215 4 240 14 19 8 68 19 108 25 48 6
96 21 134 41 33 17 85 36 116 41 31 6 76 24 101 39 71 46 117 48 164 11 48
-38 60 -38 115 -1 50 34 83 37 141 14 38 -15 44 -15 78 -1 20 9 55 21 78 27
22 5 51 21 64 35 13 14 29 25 35 25 24 0 65 42 65 66 0 29 -41 74 -68 74 -10
0 -41 -12 -67 -26 -59 -31 -78 -27 -138 29 -39 36 -47 49 -47 79 0 53 20 68
89 68 32 0 78 7 101 15 70 25 96 20 140 -25 44 -45 48 -46 193 -30 57 6 98 15
114 27 63 45 80 53 111 53 18 0 47 -7 63 -16 37 -19 91 -2 146 47 41 35 50 36
93 4 46 -34 62 -32 172 23 106 53 130 71 296 222 18 16 45 33 60 36 15 4 60
24 100 45 41 22 86 39 100 39 46 0 92 18 128 49 19 17 41 31 49 31 8 0 26 16
41 35 17 22 40 39 64 45 20 5 54 24 75 40 21 17 38 30 39 31 8 5 246 32 291
32 90 1 293 -21 318 -34 12 -7 34 -22 50 -35 16 -13 47 -25 75 -29 26 -3 88
-19 137 -35 95 -30 224 -50 340 -51 127 -1 148 -17 205 -158 29 -72 24 -69
145 -96 81 -17 133 -19 170 -5 14 5 65 14 113 20 63 7 102 18 143 39 31 16 83
34 115 40 33 6 70 20 84 31 22 18 43 29 118 60 32 14 64 69 57 100 -21 94 -20
97 23 119 71 36 66 79 -18 130 -83 51 -77 103 16 129 22 7 61 28 87 48 77 60
58 94 -53 94 -103 0 -106 4 -125 171 -7 64 -20 130 -28 145 -22 44 -36 102
-46 196 -6 66 -14 94 -35 124 -31 46 -33 87 -6 114 25 25 27 25 138 -10z
m-4123 -413 c43 -24 85 -78 85 -109 0 -30 -98 -107 -189 -148 -24 -12 -59 -33
-76 -48 -18 -15 -56 -45 -85 -67 -28 -22 -70 -56 -93 -76 -47 -41 -110 -84
-168 -116 -22 -11 -57 -37 -79 -57 -22 -20 -47 -36 -55 -36 -8 0 -32 -15 -52
-34 -21 -18 -48 -36 -60 -40 -13 -4 -41 -23 -63 -41 -23 -19 -60 -40 -83 -46
-23 -6 -66 -25 -96 -42 -75 -42 -294 -54 -330 -18 -35 35 -22 54 85 131 27 19
82 68 123 108 51 49 87 76 113 83 21 5 53 23 71 38 17 16 50 36 72 45 22 10
51 28 65 40 14 13 44 33 66 44 23 12 44 28 47 36 3 8 21 22 39 32 18 9 45 27
59 41 35 32 112 86 170 117 25 14 60 36 77 51 16 14 47 32 69 41 21 9 45 22
54 30 67 60 169 78 234 41z m332 -203 c5 -14 -11 -34 -27 -34 -3 0 -11 4 -19
9 -19 12 -6 41 19 41 11 0 23 -7 27 -16z m7593 -25 c0 -50 -131 -132 -162
-101 -20 20 7 58 64 90 65 37 98 40 98 11z m-7766 -54 c9 -9 20 -34 26 -55 17
-63 36 -70 159 -63 161 9 199 -37 95 -117 -25 -19 -58 -56 -74 -82 -17 -27
-34 -48 -40 -48 -6 0 -29 -17 -53 -39 -23 -21 -58 -43 -78 -50 -20 -6 -48 -25
-64 -41 -16 -17 -50 -36 -80 -45 -28 -8 -60 -23 -69 -34 -21 -23 -59 -36 -131
-46 -27 -4 -77 -21 -110 -38 -59 -31 -63 -32 -221 -36 -272 -5 -272 2 -6 267
208 207 289 272 506 404 66 40 115 48 140 23z m7991 -25 c31 -16 67 -30 80
-30 12 0 39 -11 59 -25 53 -36 92 -55 114 -55 10 0 34 -11 53 -25 19 -13 52
-34 74 -46 22 -12 58 -38 81 -58 22 -20 54 -43 71 -53 41 -21 64 -59 70 -112
7 -58 -7 -64 -66 -27 -30 20 -61 31 -83 31 -24 0 -47 10 -74 31 -46 37 -101
36 -175 -2 -30 -15 -73 -24 -143 -30 -107 -8 -175 -25 -241 -59 -21 -11 -53
-20 -70 -20 -48 0 -94 -17 -129 -48 -23 -20 -49 -31 -85 -36 -37 -5 -61 -15
-86 -37 -19 -17 -54 -35 -78 -41 -25 -5 -56 -23 -77 -43 -19 -18 -52 -38 -73
-44 -21 -5 -54 -22 -74 -37 -36 -27 -117 -54 -165 -54 -35 0 -68 32 -68 66 0
34 98 133 167 167 27 14 56 33 63 43 8 9 34 25 57 35 66 28 106 91 99 151 -8
61 7 91 85 169 65 65 67 66 109 44 48 -25 49 -85 1 -100 -26 -8 -121 -110
-121 -129 0 -28 38 -56 74 -56 24 0 46 10 75 34 30 25 55 37 89 41 26 3 79 11
119 17 40 6 99 8 132 4 53 -6 63 -4 81 14 27 27 27 30 -26 93 -47 58 -52 61
-119 72 -58 10 -59 12 -20 58 34 39 142 127 156 127 4 0 33 -13 64 -30z m-713
-7 c29 -26 22 -61 -23 -114 -70 -84 -120 -63 -106 44 10 72 83 112 129 70z
m-288 -29 c10 -9 16 -33 16 -58 0 -33 7 -52 29 -80 35 -44 32 -61 -14 -76 -39
-13 -87 5 -100 37 -17 45 -18 159 -1 176 22 21 50 22 70 1z m-5977 -72 c12 -7
46 -12 76 -12 62 0 89 -18 67 -45 -7 -8 -18 -15 -24 -15 -6 0 -31 -14 -56 -30
-28 -19 -58 -30 -80 -30 -68 0 -122 -28 -182 -93 -88 -96 -180 -177 -201 -177
-7 0 -28 -13 -47 -29 -19 -15 -53 -37 -75 -49 -22 -11 -49 -30 -60 -42 -11
-12 -42 -33 -70 -46 -27 -13 -65 -35 -84 -49 -19 -14 -46 -25 -60 -25 -14 0
-58 -16 -98 -36 -126 -62 -434 -67 -457 -8 -15 39 14 59 109 74 35 6 70 19 91
35 19 14 55 32 80 40 26 8 58 25 73 38 14 14 44 30 66 37 46 15 89 50 252 208
64 61 120 112 124 112 5 0 24 13 42 30 19 16 56 39 83 50 27 12 57 28 66 37 9
8 32 20 50 26 45 16 286 15 315 -1z m7207 -397 c31 -32 9 -49 -90 -70 -34 -8
-81 -24 -105 -36 -24 -12 -76 -30 -116 -40 -39 -10 -93 -29 -120 -42 -26 -14
-75 -30 -108 -37 -33 -7 -97 -27 -143 -46 -112 -46 -200 -45 -190 2 2 12 18
22 48 29 25 7 63 24 84 39 22 14 57 29 78 32 21 4 58 20 82 35 24 16 69 34
102 40 32 6 88 26 123 45 40 21 79 34 105 35 23 1 70 7 106 14 92 17 126 17
144 0z m-9629 -526 c-4 -5 -13 -9 -22 -9 -13 0 -13 3 -3 15 13 15 35 11 25 -6z
m-1831 -1152 c9 -7 21 -31 27 -55 10 -48 70 -146 94 -156 9 -3 52 -6 95 -6 99
0 110 -9 110 -92 0 -59 1 -62 48 -108 38 -38 56 -48 92 -53 25 -3 71 -17 102
-31 87 -39 161 -47 438 -52 140 -2 260 -4 267 -4 14 0 43 -28 43 -41 0 -11
-19 -29 -95 -89 -31 -25 -75 -62 -99 -82 -24 -21 -48 -38 -54 -38 -6 0 -26
-13 -45 -29 -18 -16 -58 -40 -88 -54 -31 -13 -59 -31 -62 -40 -3 -8 -35 -25
-71 -37 -36 -12 -69 -26 -72 -32 -13 -21 -91 -46 -161 -53 -102 -10 -117 6
-108 113 10 104 -4 118 -72 73 -25 -17 -52 -31 -59 -31 -7 0 -26 -11 -43 -25
-16 -14 -50 -33 -74 -41 -25 -8 -55 -26 -68 -40 -13 -13 -47 -32 -76 -40 -29
-9 -67 -27 -84 -42 -54 -44 -250 -70 -283 -36 -34 34 -12 79 47 95 23 6 59 25
80 43 20 17 56 47 80 67 23 19 71 56 107 82 139 99 158 123 127 155 -17 16
-20 15 -67 -11 -27 -15 -70 -34 -96 -42 -25 -7 -63 -25 -83 -40 -22 -14 -62
-30 -95 -35 -35 -6 -76 -21 -103 -39 -25 -17 -70 -35 -101 -41 -32 -7 -88 -26
-127 -42 -57 -25 -89 -32 -190 -39 -66 -5 -138 -15 -160 -23 -50 -18 -279 -28
-294 -13 -31 31 10 102 78 137 59 30 117 96 101 115 -17 20 -43 19 -89 -4 -82
-42 -190 -56 -451 -56 -275 0 -305 6 -298 63 4 31 99 91 188 118 30 9 77 27
103 41 26 13 79 31 118 40 42 9 82 25 99 40 33 27 79 43 127 43 44 0 63 9 63
30 0 39 -87 41 -156 4 -60 -33 -118 -40 -414 -54 -130 -6 -249 -17 -282 -25
-68 -18 -368 -20 -438 -4 -25 6 -103 17 -174 24 -102 11 -135 18 -155 34 -14
12 -48 34 -74 50 -46 27 -117 117 -117 149 0 67 104 90 262 57 117 -25 1177
-27 1232 -2 21 9 58 17 81 17 23 0 58 7 78 15 25 10 109 18 288 25 181 8 260
15 280 26 16 8 49 14 74 14 25 0 62 7 83 16 20 8 93 20 162 25 72 6 146 18
175 28 28 11 68 26 90 34 50 19 116 21 139 4z m2536 -271 c0 -7 -7 -19 -15
-26 -20 -16 -38 -1 -29 23 7 20 44 23 44 3z m155 -66 c8 -13 -13 -40 -31 -40
-14 0 -19 31 -7 43 10 10 31 8 38 -3z m-401 -26 c10 -10 16 -33 16 -65 0 -82
19 -112 106 -169 77 -50 77 -50 178 -50 83 0 107 4 136 20 19 11 62 33 95 49
33 15 67 36 75 46 29 34 133 94 176 101 98 14 143 -12 124 -71 -14 -41 -142
-191 -172 -201 -11 -3 -52 -37 -91 -76 -40 -39 -94 -81 -122 -94 -27 -13 -61
-33 -75 -44 -51 -42 -252 -53 -301 -17 -13 10 -40 29 -59 42 -53 37 -61 46
-57 58 7 22 49 19 86 -7 31 -22 48 -26 107 -26 122 0 146 51 39 83 -147 45
-284 136 -324 214 -29 57 4 219 46 223 1 0 9 -7 17 -16z m496 -75 c0 -5 -7 -9
-15 -9 -15 0 -20 12 -9 23 8 8 24 -1 24 -14z M4034 10366 c-8 -21 16 -40 30
-26 7 7 4 16 -7 27 -15 15 -17 15 -23 -1z M4105 10310 c-12 -19 6 -48 49 -84
24 -19 60 -59 79 -88 19 -29 62 -81 95 -114 33 -34 70 -81 83 -105 12 -24 32
-58 45 -75 13 -17 24 -36 24 -41 0 -10 27 -45 128 -166 67 -81 113 -134 160
-182 45 -48 51 -65 26 -89 -37 -37 -82 -17 -203 92 -56 49 -84 53 -108 15 -45
-71 -124 -53 -168 38 -25 54 -51 87 -157 201 -37 39 -91 109 -119 155 -116
186 -255 249 -156 70 19 -34 40 -81 46 -103 11 -41 50 -98 127 -183 41 -45 71
-118 60 -147 -4 -11 -18 -13 -60 -8 -105 13 -126 -10 -126 -136 0 -55 4 -73
25 -101 13 -19 32 -47 41 -64 9 -16 49 -62 89 -101 83 -80 83 -81 87 -216 3
-93 4 -98 34 -130 18 -18 39 -47 48 -65 9 -17 25 -34 36 -38 24 -7 37 -51 23
-74 -18 -29 -50 -24 -91 13 -48 44 -89 61 -108 45 -20 -16 -17 -52 6 -82 39
-49 18 -68 -39 -35 -42 24 -71 15 -71 -21 0 -22 99 -181 117 -188 19 -7 53
-76 53 -107 0 -49 -31 -63 -104 -47 -43 11 -62 6 -70 -15 -9 -24 9 -49 66 -90
29 -21 89 -70 133 -109 44 -39 96 -77 115 -84 19 -8 47 -25 61 -38 14 -13 50
-31 80 -41 46 -14 54 -21 57 -44 13 -111 -288 -61 -455 76 -17 15 -52 33 -77
40 -25 8 -60 26 -77 40 -17 14 -49 29 -71 32 -26 5 -51 18 -73 39 -46 47 -115
59 -115 20 0 -18 48 -55 72 -55 10 0 33 -15 51 -34 18 -19 50 -39 72 -46 22
-7 51 -23 65 -36 14 -13 53 -37 85 -54 81 -41 170 -103 253 -175 26 -23 59
-49 75 -58 31 -20 33 -36 11 -79 -21 -40 0 -61 68 -72 38 -6 53 -17 125 -94
46 -48 83 -95 83 -104 0 -19 -36 -48 -61 -48 -22 0 -41 -24 -33 -43 6 -16 37
-31 88 -42 17 -3 42 -15 56 -25 15 -11 51 -28 81 -39 53 -21 159 -106 159
-129 0 -7 -9 -21 -20 -32 -19 -19 -32 -20 -209 -19 -104 1 -194 -2 -200 -5
-37 -23 12 -66 76 -66 95 0 327 -72 350 -108 33 -53 68 -82 122 -103 64 -24
91 -44 91 -70 0 -25 -38 -49 -78 -49 -24 0 -42 -9 -67 -34 -33 -34 -86 -56
-132 -56 -26 0 -39 -18 -25 -32 7 -7 96 -15 218 -19 254 -11 259 -9 259 71 0
30 6 70 14 88 20 48 -19 120 -114 210 -96 91 -105 121 -46 171 22 20 46 52 53
71 6 19 21 48 32 63 20 27 20 28 2 61 -20 37 -104 114 -151 138 -17 9 -39 26
-50 38 -11 12 -35 28 -53 36 -19 8 -50 27 -68 44 -19 16 -39 30 -44 30 -5 0
-49 35 -98 79 -49 43 -101 81 -117 85 -31 8 -145 104 -145 123 0 35 81 43 137
13 86 -46 233 -21 233 40 0 23 -33 60 -55 60 -20 0 -55 36 -55 56 0 8 14 28
31 44 38 34 33 46 -21 53 -23 3 -56 17 -76 34 -19 15 -53 42 -74 58 -22 17
-53 51 -69 76 -16 25 -42 56 -59 67 -36 26 -66 85 -58 116 3 12 21 29 40 39
19 9 42 30 51 46 29 57 85 67 150 26 46 -28 110 -33 119 -9 12 32 -26 84 -162
219 -77 77 -163 161 -191 186 -81 73 -61 137 61 200 78 40 43 120 -67 150 -89
25 -59 127 30 105 16 -4 32 -20 42 -40 9 -20 43 -54 82 -82 36 -26 84 -64 107
-85 35 -31 50 -37 108 -43 75 -9 93 -1 98 41 6 52 60 56 117 7 17 -14 55 -35
83 -46 29 -11 67 -33 85 -49 42 -37 61 -36 108 1 22 17 50 30 66 30 16 0 47
10 69 21 25 13 49 19 63 15 12 -3 70 -13 129 -21 71 -9 124 -23 155 -39 27
-13 66 -29 88 -35 27 -7 62 -32 109 -78 38 -36 87 -76 107 -88 21 -11 48 -33
59 -48 32 -40 55 -50 74 -31 22 22 20 51 -10 124 -22 54 -24 67 -13 92 28 68
-101 204 -241 253 -23 8 -55 26 -71 40 -17 13 -49 29 -72 35 -23 5 -67 23 -98
40 -31 16 -78 34 -105 40 -27 6 -69 24 -94 40 -25 16 -70 34 -100 40 -30 7
-73 24 -95 39 -22 16 -56 33 -76 40 -20 6 -45 21 -55 32 -11 12 -39 32 -64 45
-25 14 -65 40 -90 59 -25 19 -65 49 -90 67 -60 44 -146 131 -195 197 -22 30
-57 72 -77 92 -21 21 -38 43 -38 48 0 6 -14 26 -30 45 -17 18 -37 50 -45 69
-17 42 -191 206 -238 225 -17 8 -47 25 -66 40 -55 41 -133 64 -146 42z M3550
8048 c0 -20 21 -38 43 -38 32 0 18 44 -15 48 -19 2 -28 -1 -28 -10z M3714
7655 c-8 -21 4 -35 31 -35 32 0 42 20 20 37 -24 17 -44 17 -51 -2z M6363 7653
c-39 -15 -8 -61 93 -139 22 -16 26 -26 20 -47 -6 -26 -23 -34 -108 -52 -79
-16 35 -124 135 -128 42 -2 42 -2 50 43 5 25 9 73 8 107 -1 55 2 65 29 96 16
19 30 40 30 46 0 17 -98 57 -172 70 -70 12 -67 12 -85 4z M6560 7250 c0 -24
34 -43 60 -35 40 13 15 55 -32 55 -21 0 -28 -5 -28 -20z M7112 7198 c-17 -17
-15 -46 7 -95 23 -50 48 -65 93 -57 101 20 103 77 4 133 -57 33 -85 38 -104
19z M6272 7163 c2 -10 14 -19 26 -21 19 -3 23 1 20 15 -2 10 -14 19 -26 21
-19 3 -23 -1 -20 -15z M6360 7058 c-73 -78 -66 -102 35 -118 32 -5 72 -14 89
-19 63 -21 166 -32 186 -21 30 16 25 40 -9 40 -55 0 -89 20 -121 71 -38 58
-84 99 -111 99 -11 0 -42 -24 -69 -52z M6994 6851 c-15 -16 19 -51 50 -51 38
0 144 -85 162 -130 20 -48 35 -53 145 -48 71 3 83 6 100 27 28 34 8 51 -67 60
-76 9 -104 25 -104 57 0 17 9 30 30 42 28 16 33 23 28 39 -3 8 -336 11 -344 4z
M6302 6778 c-17 -17 -15 -36 7 -47 24 -13 190 -66 260 -83 47 -11 59 -19 86
-58 36 -51 84 -68 262 -90 97 -12 133 -8 133 15 0 22 -20 29 -95 36 -97 8
-191 57 -275 142 -71 72 -138 97 -259 97 -70 0 -111 -4 -119 -12z M7431 6516
c-7 -8 -37 -26 -67 -40 -69 -33 -68 -51 4 -78 54 -20 64 -32 77 -91 8 -41 49
-54 202 -62 187 -10 211 9 128 98 -40 42 -49 47 -89 47 -42 0 -51 5 -123 70
-78 69 -110 83 -132 56z M6690 6373 c-86 -31 -75 -109 18 -128 42 -9 122 -83
122 -114 0 -21 -25 -50 -71 -82 -21 -14 -22 -18 -10 -33 21 -26 461 -20 487 6
14 14 15 20 5 32 -13 15 -28 19 -124 31 -91 12 -150 84 -121 147 22 48 9 64
-59 75 -22 3 -55 20 -79 39 -40 34 -116 46 -168 27z M6952 5764 c-26 -18 -30
-65 -6 -88 22 -22 136 -22 158 0 26 25 31 62 11 84 -23 26 -129 28 -163 4z
M7204 5526 c-80 -22 -93 -54 -45 -108 15 -18 36 -47 45 -65 9 -18 24 -36 34
-41 31 -15 252 -6 269 10 23 24 -8 48 -63 48 -67 0 -103 56 -92 145 4 24 -79
31 -148 11z M7850 5190 c-179 -5 -185 -6 -188 -26 -2 -16 5 -24 30 -34 18 -6
62 -25 98 -41 59 -26 83 -30 239 -39 188 -12 201 -10 201 39 0 55 -93 114
-170 109 -14 -1 -108 -5 -210 -8z M15739 5986 c-12 -12 -205 -55 -294 -66
-111 -13 -135 -22 -135 -50 0 -27 32 -35 140 -33 176 4 341 24 361 44 47 47
26 109 -36 109 -17 0 -34 -2 -36 -4z M12665 5101 c-96 -4 -182 -12 -198 -19
-18 -8 -85 -12 -187 -12 -138 0 -165 -3 -206 -21 -112 -48 -94 -69 60 -69 193
0 539 -20 603 -35 80 -19 216 -19 279 0 27 8 91 15 144 16 156 1 260 13 270
29 26 40 -14 83 -91 99 -70 13 -456 20 -674 12z M12162 2638 c-7 -7 -12 -18
-12 -24 0 -7 -11 -26 -25 -42 -64 -77 12 -101 89 -28 41 38 45 57 16 86 -23
23 -50 26 -68 8z M8380 2198 c0 -7 16 -33 35 -58 19 -25 46 -61 60 -82 35 -53
35 -53 205 -50 146 3 157 2 197 -20 23 -13 66 -36 95 -52 29 -16 64 -41 79
-57 24 -26 33 -29 92 -29 90 0 178 -41 246 -113 40 -43 71 -43 161 -1 122 58
119 90 -9 95 -74 4 -80 6 -119 41 -26 24 -54 39 -79 42 -57 9 -140 31 -208 56
-33 12 -80 29 -104 37 -38 14 -46 22 -67 69 -13 29 -32 58 -43 63 -36 20 -214
13 -282 -10 -78 -27 -107 -21 -177 36 -54 45 -82 56 -82 33z M8934 1505 c-8
-19 11 -42 50 -62 17 -8 45 -28 62 -44 30 -29 142 -69 191 -69 31 0 55 27 47
54 -10 36 -43 56 -89 56 -37 0 -51 7 -90 40 -43 37 -51 40 -106 40 -44 0 -61
-4 -65 -15z"/>
</g></svg>
